<?xml version="1.0" encoding="utf-8"?>
<!-- Generator: Adobe Illustrator 24.0.1, SVG Export Plug-In . SVG Version: 6.00 Build 0)  -->
<svg version="1.1" id="Layer_1" xmlns="http://www.w3.org/2000/svg" xmlns:xlink="http://www.w3.org/1999/xlink" x="0px" y="0px"
	 viewBox="0 0 161 122" style="enable-background:new 0 0 161 122;" xml:space="preserve">
<style type="text/css">
	.st0{fill:#996341;}
	.st1{fill:#C69171;}
	.st2{fill:#A0D078;}
	.st3{fill:#375A1C;}
	.st4{fill:#5D7F35;}
	.st5{fill:#72A546;}
	.st6{fill:#7C5842;}
	.st7{fill:#9B7663;}
	.st8{fill:#3A581B;}
</style>
<polygon class="st0" points="9,45.1 9,58.4 13.4,58.4 13.4,76.1 18.6,76.1 18.6,83.3 24.4,83.3 24.4,87.7 28.6,87.7 28.6,92.4 
	32.6,92.4 32.6,94.8 36.4,94.8 36.4,92.5 39.1,92.5 39.1,90.3 45.7,90.3 45.7,86.8 54.6,86.8 54.6,105.1 59.7,105.1 59.7,113.5 
	64.2,113.5 64.2,115.4 67.4,115.4 67.4,121.4 75.2,121.4 75.2,116.2 78.9,116.2 78.9,114.8 82.2,114.8 82.2,111.9 87.5,111.9 
	87.5,109 94.3,109 94.3,111.5 96.7,111.5 96.7,99.2 101.4,99.2 101.4,95.2 106.2,95.2 106.2,87.3 110.7,87.3 110.7,83.2 114.4,83.2 
	114.4,77 123.3,77 123.3,79.8 127.3,79.8 127.3,82.6 131.7,82.6 131.7,77 136.4,77 136.4,68.1 141.3,68.1 141.3,45.6 "/>
<polygon class="st1" points="15.5,52.4 15.5,60.2 20.9,60.2 20.9,66.2 25.6,66.2 25.6,73 31.5,73 31.5,83.2 36.4,83.2 36.4,81.3 
	39.2,81.3 39.2,74.2 41.7,74.2 41.7,71.9 45.2,71.9 45.2,55.9 40.6,55.9 40.6,52.4 33.8,52.4 33.8,57 28.6,57 28.6,52.4 "/>
<polygon class="st1" points="128.5,57.5 128.5,65.5 123.5,65.5 123.5,68.6 119.3,68.6 119.3,66.6 115.4,66.6 115.4,76.4 128.5,76.4 
	128.5,70.6 132,70.6 132,58.8 136.4,58.8 136.4,56.3 128.3,56.3 "/>
<polygon class="st1" points="59.2,55.8 59.2,58.3 54.3,58.3 54.3,80 63.2,80 63.2,87.7 67.9,87.7 67.9,95.8 70.7,95.8 70.7,99.1 
	74.2,99.1 74.2,92.3 79.4,92.3 79.4,88.7 84.1,88.7 84.1,84.8 92,84.8 92,89.5 98.5,89.5 98.5,83.2 102.3,83.2 102.3,67.8 
	92.5,67.8 92.5,58.3 86.8,58.3 86.8,63.1 81.2,63.1 81.2,66.3 78.3,66.3 78.3,69.8 72.3,69.8 72.3,56.3 "/>
<polygon class="st2" points="7.5,42.2 7.5,45.1 11.1,45.1 11.1,52.4 20.2,52.4 20.2,56.3 40.6,56.3 40.6,48.3 54.3,48.3 54.3,55.8 
	64.7,55.8 64.7,60.2 84.1,60.2 84.1,57.2 115.4,57.2 115.4,54 118.9,54 118.9,47.1 124.2,47.1 124.2,49.6 125.9,49.6 125.9,51.2 
	128.7,51.2 128.7,54.8 132.7,54.8 132.7,57.8 139.2,57.8 139.2,52.4 144.1,52.4 144.1,49.3 147.7,49.3 147.7,45.1 154.2,45.1 
	154.2,41.4 150,41.4 150,36.9 155.3,36.9 155.3,33.4 160.2,33.4 160.2,30.2 154.9,30.2 154.9,28.5 149.8,28.5 149.8,26.2 
	144.2,26.2 144.2,29.4 136.4,29.4 136.4,25 129.7,25 129.7,29.4 120.3,29.4 120.3,22.8 109.7,22.8 109.7,25.8 100.9,25.8 100.9,20 
	96.4,20 96.4,23.7 84.8,23.7 84.8,18.7 75.9,18.7 75.9,21.2 66.1,21.2 66.1,22.8 54.3,22.8 54.3,27.4 47.4,27.4 47.4,30.6 
	41.7,30.6 41.7,31.9 37,31.9 37,34 28.1,34 28.1,35.6 23.3,35.6 23.3,38.1 19,38.1 19,40.1 10.9,40.1 10.9,41.7 7.5,41.7 "/>
<polygon class="st3" points="0.8,29.3 0.8,33.7 3.2,33.7 3.2,35.5 7.6,35.5 7.6,39.1 5.4,39.1 5.4,45.4 9.4,45.4 9.4,48.2 23,48.2 
	23,45.7 29,45.7 29,43.6 33.6,43.6 33.6,35.2 37.6,35.2 37.6,34 35.6,34 35.6,31.8 19.7,31.8 19.7,35.3 26.8,35.3 26.8,37.5 
	32.6,37.5 32.6,39.6 20.3,39.6 20.3,35.9 17.8,35.9 17.8,33.6 11.6,33.6 11.6,31.9 20.2,31.8 20.2,29.3 "/>
<polygon class="st4" points="12.1,36.2 7.6,36.2 7.6,39.1 7.6,40.1 5.4,40.1 5.4,41.9 7.4,41.9 7.4,43.9 15.9,43.9 15.9,42 20.4,42 
	20.4,43.9 24.9,43.9 24.9,41.5 31.6,41.5 31.6,39.6 26.9,39.6 26.9,37.5 20.5,37.5 20.5,35.9 17.8,35.9 17.8,33.6 12.1,33.6 "/>
<polygon class="st4" points="7.4,31.7 3.2,31.7 3.2,29.3 0.8,29.3 0.8,25.3 5.9,25.3 5.9,23.6 11.5,23.6 11.5,25.8 14.3,25.8 
	14.3,27.7 17.8,27.7 17.8,29 7.4,29 "/>
<polygon class="st4" points="27.1,33.6 27.1,35.8 31.5,35.8 31.5,33.4 35.5,33.4 35.5,31.8 29.1,31.8 29.1,29.3 23.2,29.3 
	23.2,31.7 19.7,31.7 19.7,33.6 "/>
<polygon class="st5" points="130.3,35.5 120.6,35.5 120.6,36.9 118.6,36.9 118.6,39.1 121.7,39.1 121.7,43.7 124.1,43.7 124.1,45.1 
	132.7,45.1 132.7,47.4 142,47.4 142,45.1 146.9,45.1 146.9,43.4 149.7,43.4 149.7,39.9 146.6,39.9 146.6,36.8 140,36.8 140,34.7 
	130.2,34.7 "/>
<polygon class="st6" points="135.9,23.9 135.9,31.2 132.3,37.8 127.7,38.4 127.7,39.6 132.7,39.6 132.7,41 140.6,41 140.6,39.5 
	138.3,39.5 138.3,26.5 140.6,26.5 140.6,23.9 "/>
<polygon class="st7" points="132.8,28.7 132.8,35.1 129.7,35.1 129.7,36.8 127,36.8 127,38.7 135.7,38.7 135.7,28.7 "/>
<polygon class="st8" points="127,17.5 127,19.6 136.1,19.6 136.1,21.7 146.5,21.7 146.5,23.9 151.6,23.9 151.6,19.6 154.2,19.6 
	154.2,14.9 151.9,14.9 151.9,13.9 150.3,13.9 150.3,11.2 137.6,11.2 137.6,14.1 136.3,14.1 136.3,15.7 132.5,15.7 132.5,17.5 "/>
<polygon class="st4" points="140.6,17.5 140.6,19.9 146.2,19.9 146.2,17.5 154.2,17.5 154.2,15.3 151.9,15.3 151.9,13.9 150.3,13.9 
	150.3,11.2 139.5,11.2 139.5,14.4 136.3,14.4 136.3,15.7 132.5,15.7 132.5,17.5 127,17.5 127,19.6 133.6,19.6 133.6,17.5 "/>
</svg>
