<svg xmlns="http://www.w3.org/2000/svg" viewBox="0 0 177.7 165.99"><defs><style>.cls-1{fill:#9c6745;}.cls-2{fill:#f2a169;}.cls-3{fill:#61e26c;}.cls-4{fill:#c58154;}.cls-5{fill:#efa574;}.cls-6{fill:#4ca354;}.cls-7{fill:#71c65e;}.cls-8{fill:#2c7943;}.cls-9{fill:#465b86;}.cls-10{fill:#738aaa;}.cls-11{fill:#99b3ca;}.cls-12{fill:#b4cfd8;}.cls-13{fill:#16dff4;}.cls-14{fill:#94f2f7;}</style></defs><title>Asset 5</title><g id="Layer_2" data-name="Layer 2"><g id="Layer_1-2" data-name="Layer 1"><polygon class="cls-1" points="7.84 40.79 0 43.74 0 45.48 2.23 45.48 2.23 55.93 4.26 55.93 4.26 64.16 6.89 64.16 6.89 69.94 9.94 69.94 9.94 75.72 13.18 75.72 13.18 79.94 15.82 79.94 15.82 85.28 18.66 85.28 18.66 92.39 21.7 92.39 21.7 97.73 23.93 97.73 23.93 105.06 27.17 105.06 27.17 111.73 30.42 111.73 30.42 117.07 33.05 117.07 33.05 120.85 36.3 120.85 36.3 117.29 37.72 117.29 37.72 113.07 37.72 98.84 39.34 98.84 39.34 101.73 41.17 101.73 41.17 104.06 42.79 104.06 42.79 114.18 45.12 114.18 45.12 109.4 47.15 109.4 47.15 111.07 48.77 111.07 48.77 112.51 50.49 112.51 50.49 114.18 52.22 114.18 52.22 115.29 54.04 115.29 54.04 117.07 55.87 117.07 55.87 119.52 58 119.52 58 121.96 60.13 121.96 60.13 124.63 61.95 124.63 61.95 129.19 64.18 129.19 64.18 135.08 67.53 135.08 67.53 140.97 70.57 140.97 70.57 146.98 73 146.98 73 144.2 74.52 144.2 74.52 142.42 77.26 142.42 77.26 140.42 78.98 140.42 78.98 138.42 81.01 138.42 81.01 142.53 83.85 142.53 83.85 155.87 85.78 155.87 85.78 165.99 89.83 165.99 89.83 156.87 92.27 156.87 92.27 143.75 95.21 143.75 95.21 140.42 98.35 140.42 98.35 137.08 101.29 137.08 101.29 132.41 104.54 132.41 104.54 128.63 106.56 128.63 106.56 133.63 108.59 133.63 108.59 139.75 110.42 139.75 110.42 143.09 112.55 143.09 112.55 140.08 114.88 140.08 114.88 136.97 116.6 136.97 116.6 132.63 118.63 132.63 118.63 129.97 120.76 129.97 120.76 127.97 122.58 127.97 122.58 125.3 124.71 125.3 124.71 122.96 126.54 122.96 126.54 119.3 128.26 119.3 128.26 115.29 130.49 115.29 130.49 111.96 132.01 111.96 132.01 106.84 134.24 106.84 134.24 101.62 135.97 101.62 135.97 98.51 138 98.51 138 95.84 139.82 95.84 139.82 93.06 141.24 93.06 141.24 95.95 142.25 95.95 142.25 99.17 142.25 111.96 144.49 111.96 144.49 105.06 145.6 105.06 145.6 107.29 147.73 107.29 147.73 104.51 149.15 104.51 149.15 108.84 151.38 108.84 151.38 103.95 152.7 103.95 152.7 105.62 154.22 105.62 154.22 102.73 156.04 102.73 156.04 104.51 158.28 104.51 158.28 91.72 161.32 91.72 161.32 86.61 163.04 86.61 163.04 81.78 165.47 81.78 165.47 76.38 168.31 76.38 168.31 69.16 170.54 69.16 170.54 62.21 170.54 54.82 164.05 47.7 7.84 40.79"/><polygon class="cls-2" points="38.52 23.94 31.43 25.82 31.43 26.75 29.03 26.75 29.03 28.36 25.82 28.36 25.82 29.7 22.07 29.7 22.07 31.43 16.45 31.43 16.45 33.44 12.57 33.44 12.57 35.85 9.9 35.85 9.9 37.32 6.42 37.32 6.42 40.13 2.54 40.13 2.54 42.27 0 42.27 0 43.74 2.01 43.74 2.01 45.88 4.28 45.88 4.28 48.82 6.15 48.82 6.15 51.23 8.69 51.23 8.69 53.64 11.1 53.64 11.1 55.51 15.25 55.51 15.25 57.12 19.26 57.12 19.26 58.45 19.26 59.93 16.59 59.93 16.59 61.66 14.71 61.66 14.71 63.14 16.05 63.14 16.05 65.41 13.64 65.41 13.64 67.42 15.12 67.42 15.12 69.29 17.39 69.29 17.39 71.16 19.26 71.16 19.26 73.03 22.34 73.03 22.34 75.18 27.02 75.18 27.02 76.65 30.9 76.65 30.9 79.06 34.51 79.06 34.51 81.6 37.85 81.6 37.85 84.14 40.53 84.14 40.53 86.14 43.34 86.14 43.34 84.14 46.15 84.14 46.15 86.14 50.03 86.14 50.03 87.22 53.91 87.22 53.91 85.74 58.05 85.74 58.05 87.22 59.52 87.22 59.52 90.96 61.8 90.96 61.8 92.7 65.81 92.7 65.81 93.77 71.03 93.77 71.03 92.43 73.57 92.43 73.57 94.3 76.11 94.3 76.11 96.31 82 96.31 82 98.45 90.02 98.45 90.02 100.32 97.11 100.32 97.11 102.2 102.86 102.2 102.86 100.72 107.14 100.72 107.14 98.99 112.76 98.99 112.76 96.98 116.91 96.98 116.91 95.11 121.05 95.11 121.05 93.23 126.44 93.23 126.44 91.23 129.95 91.23 129.95 87.82 131.85 87.82 131.85 85.81 134.06 85.81 134.06 81.3 137.37 81.3 137.37 79.69 141.99 79.69 141.99 81.5 144.09 81.5 144.09 80.09 146.6 80.09 146.6 81.09 149.21 81.09 149.21 79.19 152.32 79.19 152.32 80.39 154.63 80.39 154.63 78.89 156.94 78.89 156.94 77.58 158.74 77.58 158.74 75.78 161.85 75.78 161.85 73.27 165.76 73.27 165.76 71.56 170.58 71.56 170.58 69.26 173.69 69.26 173.69 67.45 175.5 67.45 175.5 64.64 171.08 64.64 171.08 61.93 167.27 61.93 167.27 58.92 169.68 58.92 169.68 56.31 171.88 56.31 171.88 53.91 175.5 53.91 175.5 52.07 176.63 52.07 176.63 50.4 177.7 50.4 177.7 48.42 176.03 48.42 176.03 46.85 173.99 46.85 173.99 45.08 166.97 45.08 166.97 43.51 162.22 43.51 127.57 36.18 127.57 33.86 122.5 33.49 109.14 28.31 105.93 28.07 105.93 26.77 100.2 26.46 73.17 20.6 38.52 23.94"/><polyline class="cls-3" points="153.49 44.27 153.35 42.76 107.07 35.49 101.36 35.49 101.36 37.27 88.85 37.27 88.85 39.35 77.36 39.35 77.36 41.57 71.58 41.57 71.58 39.16 64.19 39.16 64.19 40.31 59.65 40.31 59.65 38.61 55.87 38.61 55.87 37.53 51.4 37.53 51.4 36.2 45.37 36.2 45.37 33.98 42.97 33.98 42.97 27.75 37.8 27.38 37.8 29.05 31.48 29.05 31.48 31.94 26.76 31.94 26.76 34.14 22.91 34.14 22.91 35.99 18.09 35.99 18.09 39.05 15.73 39.05 15.73 40.83 17.76 40.83 17.76 42.05 15.73 42.05 15.73 44.05 12.19 44.05 12.19 45.39 14.23 45.39 14.23 47.06 16.59 47.06 16.59 48.39 22.8 48.39 22.8 49.39 24.19 49.39 24.19 50.61 20.76 50.61 20.76 51.73 18.19 51.73 18.19 52.84 20.34 52.84 20.34 53.95 23.33 53.95 23.33 55.51 24.3 55.51 24.3 57.4 22.69 57.4 22.69 58.95 21.3 58.95 21.3 60.51 23.98 60.51 23.98 62.73 26.76 62.73 26.76 64.84 23.12 64.84 23.12 66.96 21.73 66.96 21.73 70.07 21.73 70.85 19.26 70.85 19.26 72.46 22.91 72.46 22.91 74.13 28.8 74.13 28.8 75.18 31.1 75.18 31.1 74.07 37.42 74.07 37.42 75.18 40.21 75.18 40.21 76.24 45.88 76.24 45.88 78.63 49.58 78.63 49.58 80.07 51.56 80.07 51.56 81.3 54.51 81.3 54.51 82.56 59.01 82.56 59.01 83.97 62.51 83.97 62.51 85.08 67.93 85.08 67.93 86.26 65.65 86.26 65.65 87.82 63.94 87.82 63.94 88.56 73.08 88.56 73.08 87.37 75.86 87.37 75.86 85.22 82.86 85.22 82.86 82.33 89.79 82.33 89.79 80.85 95.93 80.85 95.93 82.04 94.57 82.04 94.57 83.67 92.57 83.67 92.57 85.59 95.93 85.59 95.93 86.71 101.21 86.71 101.21 88.86 104.93 88.86 104.93 89.89 99.14 89.89 99.14 91.23 95.72 91.23 95.72 92.64 98.72 92.64 98.72 93.97 103.36 93.97 103.36 95.38 106.21 95.38 106.21 94.12 109.93 94.12 109.93 92.41 114.57 92.41 114.57 90.41 117.43 90.41 117.43 88.56 123.28 88.56 123.28 87.67 126.57 87.67 126.57 85.67 129.64 85.67 129.64 83 127.35 83 127.35 80.33 129.64 80.33 129.64 78.63 134.35 78.63 134.35 76.63 137.92 76.63 137.92 75.29 142.35 75.29 142.35 73.29 144.64 73.29 144.64 71.37 148.35 71.37 148.35 69.12 156.35 69.12 156.35 67.66 164.35 67.66 164.35 66.47 168.85 66.47 168.85 64.84 170.54 64.84 170.02 62.04 166.6 61.84 163.97 61.71 163.28 49.95 161.82 49.92 161.76 48.32 159.6 48.18 159.47 44.45"/><polygon class="cls-4" points="18.51 72.63 18.51 77.96 20.76 77.96 20.76 82.52 22.26 82.52 22.26 85.41 24.08 85.41 24.08 89.86 25.58 89.86 25.58 96.08 27.73 96.08 27.73 101.31 29.55 101.31 29.55 97.86 30.41 97.86 30.41 92.53 32.87 92.53 32.87 87.63 34.05 87.63 34.05 79.06 30.9 79.06 30.9 76.65 27.02 76.65 27.02 75.18 22.34 75.18 22.34 73.03 18.51 72.63"/><polygon class="cls-4" points="50.03 86.14 50.03 89.75 51.51 89.75 51.51 92.86 53.44 92.86 53.44 96.53 55.26 96.53 55.26 100.06 58.9 100.06 58.9 103.75 62.33 103.75 62.33 111.76 65.76 111.76 65.76 115.43 68.97 115.43 68.97 120.76 71.97 120.76 71.97 125.88 75.4 125.88 75.4 128.66 79.25 128.66 79.25 130.99 83 130.99 83 136.99 86 136.99 86 151.89 88.85 151.89 88.85 134.1 91.37 134.1 91.37 130.1 94.57 130.1 94.57 126.65 98 126.65 98 122.21 100.57 122.21 100.57 116.98 103.78 116.98 103.78 112.42 107.43 112.42 107.43 100.72 102.86 100.72 102.86 102.2 97.11 102.2 97.11 100.32 90.02 100.32 90.02 98.45 82 98.45 82 96.31 76.11 96.31 76.11 94.3 73.57 94.3 73.57 92.43 71.03 92.43 71.03 93.77 65.81 93.77 65.81 92.7 61.8 92.7 61.8 90.96 59.52 90.96 59.52 87.22 58.05 87.22 58.05 85.74 53.91 85.74 53.91 87.22 50.03 87.22 50.03 86.14"/><polygon class="cls-5" points="74 107.31 76.15 107.31 76.15 104.75 78.73 104.75 78.73 106.03 81.18 106.03 81.18 104.2 85.27 104.2 85.27 108.87 87.18 108.87 87.18 112.31 90.18 112.31 90.18 119.87 86.97 119.87 86.97 124.76 84.61 124.76 84.61 121.43 81.29 121.43 81.29 117.65 78.73 117.65 78.73 114.48 74.86 114.48 74.86 111.87 73.47 111.87 73.47 107.31 74 107.31"/><polygon class="cls-4" points="112.76 98.99 112.76 104.86 114.61 104.86 114.61 107.31 116.11 107.31 116.11 112.87 117.93 112.87 117.93 118.82 120.07 118.82 120.07 115.54 122 115.54 122 112.2 123.5 112.2 123.5 108.2 125.1 108.2 125.1 104.2 127.89 104.2 127.89 100.75 130.89 100.75 130.89 87.82 129.95 87.82 129.95 91.23 126.44 91.23 126.44 93.23 121.05 93.23 121.05 95.11 116.91 95.11 116.91 96.98 112.76 96.98 112.76 98.99"/><polygon class="cls-5" points="146.1 86.63 149.53 86.63 149.53 88.63 151.56 88.63 151.56 91.86 154.03 91.86 154.03 95.38 150.06 95.38 150.06 98.31 146.1 98.31 146.1 94.75 143.74 94.75 143.74 90.75 145.67 90.75 145.67 86.63 146.1 86.63"/><polygon class="cls-6" points="15.08 40.25 15.08 37.85 17.72 37.85 17.72 36.3 20.11 36.3 20.11 33.59 21.97 33.59 21.97 31.27 30.49 31.27 30.49 27.48 32.42 27.48 32.42 24.54 35.67 24.54 35.67 22.75 36.99 22.75 36.99 20.2 39.7 20.2 39.7 18.19 41.63 18.19 41.63 15.48 46.04 15.48 46.04 13.16 55.8 13.16 55.8 11.07 59.28 11.07 59.28 9.29 60.75 9.29 60.75 6.89 63.61 6.89 63.61 4.8 67.02 4.8 67.02 2.55 68.41 2.55 68.41 0.23 74.6 0.23 74.6 2.55 77.31 2.55 77.31 4.49 79.56 4.49 79.56 7.58 82.19 7.58 82.19 9.44 84.74 9.44 84.74 11.46 87.22 11.46 87.22 13.62 97.75 13.62 97.75 16.56 99.6 16.56 99.6 17.96 101 17.96 101 23.14 103.63 23.14 103.63 24.92 106.18 24.92 106.18 29.8 111.29 29.8 111.29 34.05 115.39 34.05 115.39 36.38 118.18 36.38 118.18 38.54 120.73 38.54 120.73 40.79 15.08 40.25"/><polygon class="cls-7" points="21.89 34.44 21.89 35.99 24.37 35.99 24.37 38.54 28.94 38.54 28.94 35.6 34.59 35.6 34.59 33.44 31.8 33.44 31.8 30.65 22.36 30.65 21.89 34.44"/><polygon class="cls-7" points="43.57 17.68 43.57 22.33 41.36 22.33 41.36 24.61 44.49 24.61 44.49 22.45 46.28 22.45 46.28 20.16 51.62 20.16 51.62 22.14 48.79 22.14 48.79 24.42 46.12 24.42 46.12 27.05 48.71 27.05 48.71 29.3 46.04 29.3 46.04 31.66 48.4 31.66 48.4 34.17 50.73 34.17 50.73 36.11 53.63 36.11 53.63 33.63 50.73 33.63 50.73 31.07 53.63 31.07 53.63 33.13 53.63 34.13 55.99 34.13 55.99 38.08 57.88 38.08 57.88 35.6 60.71 35.6 60.71 38.27 69.88 38.27 69.88 36.11 73.21 36.11 73.21 33.78 70.23 33.78 70.23 31.46 67.91 31.46 67.91 28.83 65.66 28.83 65.66 26.32 60.9 26.32 60.9 24.88 58.04 24.88 58.04 22.1 55.14 22.1 55.14 19.89 53.44 19.89 53.44 17.49 55.49 17.49 55.49 13.16 53.13 13.16 53.13 15.56 51.04 15.56 51.04 18.07 48.95 18.07 48.95 15.36 50.69 15.36 50.69 13.16 46.51 13.16 46.51 17.65 43.57 17.68"/><polygon class="cls-7" points="118.38 40.78 118.38 38.75 116.27 38.75 116.27 40.35 111.16 40.35 111.16 38.03 108.58 38.03 108.58 40.35 106.57 40.35 106.57 38.27 99.5 38.27 99.5 35.6 96.97 35.6 96.97 33.49 94.6 33.49 94.6 35.86 96.61 35.86 96.61 38.27 94.08 38.27 94.08 36.07 92.12 36.07 92.12 33.49 89.49 33.49 89.49 31.32 87.06 31.32 87.06 33.64 88.92 33.64 88.92 35.81 91.55 35.81 91.55 38.27 87.48 38.27 87.48 35.76 85.31 35.76 85.31 31.79 82.32 31.79 82.32 26.93 79.53 26.93 79.53 24.72 77.16 24.72 77.16 18.11 79.48 18.11 79.48 15.69 77.16 15.69 77.16 17.13 75.04 17.13 75.04 15.38 73.21 15.38 73.21 13.16 75.04 13.16 75.04 11.3 77.67 11.3 77.67 8.2 73.96 8.2 73.96 6.45 72 6.45 72 4.33 70.35 4.33 70.35 0 74.6 0 74.6 2.55 77.31 2.55 77.31 4.49 79.56 4.49 79.56 7.58 82.19 7.58 82.19 9.44 84.74 9.44 84.74 11.46 87.22 11.46 87.22 13.83 97.75 13.83 97.75 16.56 99.6 16.56 99.6 17.96 101 17.96 101 23.14 103.63 23.14 103.63 24.92 106.18 24.92 106.18 29.8 111.29 29.8 111.29 34.05 115.39 34.05 115.39 36.38 118.18 36.38 118.38 38.75 120.73 38.75 120.73 40.79 118.38 40.78"/><rect class="cls-8" x="29.27" y="35.6" width="2.12" height="4.49"/><rect class="cls-8" x="34.18" y="31.73" width="2.27" height="8.36"/><polygon class="cls-8" points="39.08 39.83 39.08 35.91 40.88 35.91 40.88 40.09 39.08 40.09 39.08 39.83"/><rect class="cls-8" x="58.53" y="20.02" width="2.37" height="5.26"/><rect class="cls-8" x="63.17" y="20.02" width="2.49" height="6.91"/><rect class="cls-8" x="67.91" y="24.72" width="2.44" height="4.18"/><rect class="cls-8" x="74.99" y="35.91" width="2.12" height="4.64"/><rect class="cls-8" x="80.15" y="33.69" width="2.32" height="6.89"/><polygon class="cls-8" points="84.79 13.52 82.78 13.52 82.78 19.71 84.79 19.71 84.79 17.54 86.65 17.54 86.65 15.63 89.03 15.63 89.03 13.83 87.22 13.83 84.79 13.52"/><rect class="cls-8" x="103.94" y="26.93" width="1.96" height="6.76"/><polygon class="cls-9" points="63.93 54.68 63.93 52.79 67.52 52.79 67.52 48.92 68.74 48.92 68.74 46.84 70.63 46.84 70.63 44.95 74.78 44.95 74.78 42.78 77.81 42.78 77.81 38.63 79.6 38.63 79.6 34.28 81.58 34.28 81.58 32.58 83.38 32.58 83.38 29.56 85.55 29.56 85.55 31.54 88.29 31.54 88.29 34.28 90.27 34.28 90.27 36.08 95.37 36.08 95.37 34.19 97.44 34.19 97.44 32.68 99.24 32.68 99.24 27.48 101.6 27.48 101.6 24.18 103.49 24.18 103.49 19.93 105.19 19.93 105.19 17.38 107.93 17.38 107.93 19.93 109.63 19.93 109.63 22.2 112.46 22.2 112.46 19.74 114.82 19.74 114.82 17.38 116.99 17.38 116.99 13.51 119.16 13.51 119.16 11.05 121.43 11.05 121.43 8.79 123.6 8.79 123.6 11.24 125.49 11.24 125.49 13.23 127.75 13.23 127.75 19.65 129.83 19.65 129.83 22.2 131.81 22.2 131.81 25.41 133.99 25.41 133.99 27.58 137.01 27.58 137.01 30.22 141.25 30.22 141.25 32.11 143.05 32.11 143.05 37.97 144.84 37.97 144.84 39.95 147.58 39.95 147.58 46.84 149.75 46.84 149.75 49.01 152.21 49.01 152.21 51.37 156.27 51.37 156.27 52.88 165.33 52.88 165.33 54.68 70.58 54.68 63.93 54.68"/><polygon class="cls-10" points="70.72 52.34 72.71 52.34 72.71 50.36 75.04 50.36 75.04 48.3 77.17 48.3 77.17 54.68 70.58 54.68 70.72 52.34"/><polygon class="cls-10" points="79.65 50.29 79.65 54.68 84.46 54.68 84.46 53.12 82.06 53.12 82.06 50.29 79.65 50.29"/><polygon class="cls-10" points="79.65 38.96 81.28 38.96 81.28 44.9 83.75 44.9 83.75 48.3 86.09 48.3 86.09 50.64 88.14 50.64 88.14 52.77 90.41 52.77 90.41 54.68 102.17 54.68 102.17 52.91 99.69 52.91 99.69 50.29 97.28 50.29 97.28 46.82 99.12 46.82 99.12 48.94 103.09 48.94 103.09 50.71 105.49 50.71 105.49 52.77 108.4 52.77 108.4 50.29 105.92 50.29 105.92 48.3 103.58 48.3 103.58 46.18 101.6 46.18 101.6 44.27 99.47 44.27 99.47 42.57 97.14 42.57 97.14 38.03 92.89 38.03 92.89 36.08 90.27 36.08 90.27 34.28 88.43 34.28 88.43 31.54 85.55 31.54 85.55 29.56 83.38 29.56 83.38 32.58 81.58 32.58 81.58 34.28 79.6 34.28 79.6 38.63 79.65 38.96"/><polygon class="cls-11" points="83.61 33.34 83.61 36.08 85.93 36.08 85.93 42.35 88.14 42.35 88.14 44.81 90.32 44.81 90.32 48.54 92.35 48.54 92.35 50.71 95.32 50.71 95.32 48.3 93.1 48.3 93.1 44.1 96.59 44.1 96.59 42.5 94.71 42.5 94.71 38.03 92.87 38.03 92.87 36.08 90.27 36.08 90.27 34.28 88.43 34.28 88.43 31.73 85.55 31.73 85.55 29.56 83.38 29.56 83.61 33.34"/><polygon class="cls-12" points="90.5 40.14 90.5 44.81 88.43 44.81 88.43 38.3 86.21 38.3 86.21 35.65 86.21 34.19 83.61 34.19 83.61 29.56 85.55 29.56 85.55 32.11 88.43 32.11 88.43 34.28 90.27 34.28 90.27 35.84 93.01 35.84 93.01 38.03 94.71 38.03 94.71 40.14 90.5 40.14"/><polygon class="cls-10" points="119.16 13.51 119.16 17.66 117.04 17.66 117.04 21.82 114.86 21.82 114.86 25.97 112.6 25.97 112.6 31.45 110 31.45 110 36.12 107.59 36.12 107.59 38.3 105.33 38.3 105.33 40.42 103.72 40.42 103.72 44.34 106.32 44.34 106.32 42.12 110.95 42.12 110.95 40.14 112.36 40.14 112.36 38.25 114.86 38.25 114.86 42.12 112.27 42.12 112.27 46.56 114.39 46.56 114.39 43.91 116.94 43.91 116.94 42.12 119.16 42.12 119.16 40.33 121.19 40.33 121.19 44.43 119.26 44.43 119.26 48.68 116.66 48.68 116.66 52.48 118.55 52.48 118.55 54.68 143.43 54.68 143.43 47.03 145.46 47.03 145.46 50.71 147.68 50.71 147.68 52.48 149.56 52.48 149.56 54.68 158.16 54.68 158.16 52.88 156.27 52.88 156.27 51.37 152.21 51.37 152.21 49.01 149.75 49.01 149.75 46.84 147.58 46.84 147.58 39.95 145.17 39.95 144.84 37.97 143.05 37.97 143.05 32.11 141.25 32.11 141.25 30.22 137.01 30.22 137.01 27.58 133.99 27.58 133.99 25.41 131.81 25.41 131.81 22.2 129.83 22.2 129.83 19.65 127.75 19.65 127.75 13.23 125.49 13.23 125.49 11.24 123.6 11.24 123.6 8.79 121.43 8.79 121.43 10.82 119.16 10.82 119.16 13.51"/><polygon class="cls-11" points="121.1 11.57 121.1 21.63 123.22 21.63 123.22 26.02 125.2 26.02 125.2 29.32 127.89 29.32 127.89 32.11 130.11 32.11 130.11 35.37 134.27 35.37 134.27 43.68 132.38 43.68 132.38 42.12 129.93 42.12 129.93 37.97 128.04 37.97 128.04 35.79 125.77 35.79 125.77 33.53 123.41 33.53 123.41 29.94 121.1 29.94 121.1 34.38 122.47 34.38 122.47 36.64 125.06 36.64 125.06 46.37 127.68 46.37 127.68 50.29 130.02 50.29 130.02 52.32 132.24 52.32 132.24 54.68 138.75 54.68 138.75 53.07 140.93 53.07 140.93 50.33 143.43 50.33 143.43 47.03 145.46 47.03 147.58 47.03 147.58 39.95 145.13 39.95 145.13 37.92 143.05 37.92 143.05 32.44 141.25 32.44 141.25 30.22 137.01 30.22 137.01 27.58 133.99 27.58 133.99 25.41 131.81 25.41 131.81 22.2 129.83 22.2 129.83 19.65 127.75 19.65 127.75 13.23 125.72 13.23 125.72 11.24 121.1 11.57"/><polygon class="cls-11" points="101.22 28.05 101.22 32.35 103.91 32.35 103.91 29.89 105.14 29.89 105.14 28.05 108.4 28.05 108.4 25.74 110.62 25.74 110.62 22.2 109.39 22.2 109.39 19.93 107.93 19.93 107.93 17.38 105.19 17.38 105.19 19.93 103.72 19.93 103.72 24.18 101.6 24.18 101.22 28.05"/><polygon class="cls-12" points="125.68 13.89 125.68 20.33 127.45 20.33 127.45 23.45 129.43 23.45 129.43 27.48 132.12 27.48 132.12 29.56 134.34 29.56 134.34 34.07 131.98 34.07 131.98 35.37 134.27 35.37 134.27 41.15 138.63 41.15 138.63 41.79 141.19 41.79 141.19 40.73 138.14 40.73 138.14 38.11 136.58 38.11 136.58 33.65 140.76 33.65 140.76 36.41 143.05 36.41 143.05 32.44 141.25 32.44 141.25 30.22 137.01 30.22 137.01 27.58 133.99 27.58 133.99 25.41 131.81 25.41 131.81 22.2 130.14 22.2 130.14 19.65 127.75 19.65 127.75 13.23 125.68 13.89"/><polygon class="cls-9" points="19.93 53.42 19.93 52.09 23.52 52.09 23.52 49.35 24.75 49.35 24.75 47.88 26.64 47.88 26.64 46.54 30.79 46.54 30.79 45 33.81 45 33.81 42.06 35.61 42.06 35.61 38.99 37.59 38.99 37.59 37.78 39.38 37.78 39.38 35.65 41.56 35.65 41.56 37.05 44.3 37.05 44.3 38.99 46.28 38.99 46.28 40.26 51.38 40.26 51.38 38.92 53.45 38.92 53.45 37.85 55.25 37.85 55.25 34.17 57.61 34.17 57.61 31.84 59.5 31.84 59.5 28.83 61.2 28.83 61.2 27.02 63.93 27.02 63.93 28.83 65.63 28.83 65.63 30.43 68.47 30.43 68.47 28.7 70.83 28.7 70.83 27.02 73 27.02 73 24.28 75.17 24.28 75.17 22.55 77.44 22.55 77.44 20.94 79.61 20.94 79.61 22.68 81.5 22.68 81.5 24.08 83.76 24.08 83.76 28.63 85.84 28.63 85.84 30.43 87.82 30.43 87.82 32.7 89.99 32.7 89.99 34.24 93.02 34.24 93.02 36.11 97.26 36.11 97.26 37.45 99.06 37.45 99.06 41.59 100.85 41.59 100.85 43 103.59 43 103.59 47.88 105.76 47.88 105.76 49.41 108.22 49.41 108.22 51.08 112.28 51.08 112.28 52.15 121.34 52.15 121.34 53.42 26.59 53.42 19.93 53.42"/><polygon class="cls-10" points="26.73 51.77 28.72 51.77 28.72 50.37 31.05 50.37 31.05 48.91 33.18 48.91 33.18 53.42 26.59 53.42 26.73 51.77"/><polygon class="cls-10" points="35.66 50.31 35.66 53.42 40.47 53.42 40.47 52.32 38.06 52.32 38.06 50.31 35.66 50.31"/><polygon class="cls-10" points="35.66 42.3 37.28 42.3 37.28 46.51 39.76 46.51 39.76 48.91 42.1 48.91 42.1 50.56 44.15 50.56 44.15 52.07 46.42 52.07 46.42 53.42 58.17 53.42 58.17 52.17 55.7 52.17 55.7 50.31 53.29 50.31 53.29 47.86 55.13 47.86 55.13 49.36 59.09 49.36 59.09 50.62 61.5 50.62 61.5 52.07 64.41 52.07 64.41 50.31 61.93 50.31 61.93 48.91 59.59 48.91 59.59 47.41 57.61 47.41 57.61 46.05 55.48 46.05 55.48 44.85 53.15 44.85 53.15 41.64 48.9 41.64 48.9 40.26 46.28 40.26 46.28 38.99 44.44 38.99 44.44 37.05 41.56 37.05 41.56 35.65 39.38 35.65 39.38 37.78 37.59 37.78 37.59 38.99 35.61 38.99 35.61 42.06 35.66 42.3"/><polygon class="cls-11" points="39.62 38.32 39.62 40.26 41.94 40.26 41.94 44.7 44.15 44.7 44.15 46.44 46.33 46.44 46.33 49.08 48.35 49.08 48.35 50.62 51.33 50.62 51.33 48.91 49.11 48.91 49.11 45.94 52.6 45.94 52.6 44.8 50.72 44.8 50.72 41.64 48.88 41.64 48.88 40.26 46.28 40.26 46.28 38.99 44.44 38.99 44.44 37.18 41.56 37.18 41.56 35.65 39.38 35.65 39.62 38.32"/><polygon class="cls-12" points="46.51 43.13 46.51 46.44 44.44 46.44 44.44 41.83 42.22 41.83 42.22 39.96 42.22 38.92 39.62 38.92 39.62 35.65 41.56 35.65 41.56 37.45 44.44 37.45 44.44 38.99 46.28 38.99 46.28 40.09 49.02 40.09 49.02 41.64 50.72 41.64 50.72 43.13 46.51 43.13"/><polygon class="cls-10" points="75.17 24.28 75.17 27.22 73.05 27.22 73.05 30.16 70.87 30.16 70.87 33.11 68.61 33.11 68.61 36.98 66.01 36.98 66.01 40.29 63.6 40.29 63.6 41.83 61.34 41.83 61.34 43.33 59.73 43.33 59.73 46.1 62.33 46.1 62.33 44.53 66.96 44.53 66.96 43.13 68.37 43.13 68.37 41.79 70.87 41.79 70.87 44.53 68.28 44.53 68.28 47.67 70.4 47.67 70.4 45.8 72.95 45.8 72.95 44.53 75.17 44.53 75.17 43.26 77.2 43.26 77.2 46.17 75.26 46.17 75.26 49.18 72.67 49.18 72.67 51.87 74.56 51.87 74.56 53.42 99.44 53.42 99.44 48.01 101.47 48.01 101.47 50.62 103.68 50.62 103.68 51.87 105.57 51.87 105.57 53.42 114.17 53.42 114.17 52.15 112.28 52.15 112.28 51.08 108.22 51.08 108.22 49.41 105.76 49.41 105.76 47.88 103.59 47.88 103.59 43 101.18 43 100.85 41.59 99.06 41.59 99.06 37.45 97.26 37.45 97.26 36.11 93.02 36.11 93.02 34.24 89.99 34.24 89.99 32.7 87.82 32.7 87.82 30.43 85.84 30.43 85.84 28.63 83.76 28.63 83.76 24.08 81.5 24.08 81.5 22.68 79.61 22.68 79.61 20.94 77.44 20.94 77.44 22.38 75.17 22.38 75.17 24.28"/><polygon class="cls-11" points="77.11 22.91 77.11 30.03 79.23 30.03 79.23 33.14 81.21 33.14 81.21 35.48 83.9 35.48 83.9 37.45 86.12 37.45 86.12 39.76 90.28 39.76 90.28 45.64 88.39 45.64 88.39 44.53 85.93 44.53 85.93 41.59 84.05 41.59 84.05 40.06 81.78 40.06 81.78 38.45 79.42 38.45 79.42 35.91 77.11 35.91 77.11 39.05 78.47 39.05 78.47 40.66 81.07 40.66 81.07 47.54 83.69 47.54 83.69 50.31 86.03 50.31 86.03 51.75 88.25 51.75 88.25 53.42 94.76 53.42 94.76 52.29 96.93 52.29 96.93 50.35 99.44 50.35 99.44 48.01 101.47 48.01 103.59 48.01 103.59 43 101.14 43 101.14 41.56 99.06 41.56 99.06 37.68 97.26 37.68 97.26 36.11 93.02 36.11 93.02 34.24 89.99 34.24 89.99 32.7 87.82 32.7 87.82 30.43 85.84 30.43 85.84 28.63 83.76 28.63 83.76 24.08 81.73 24.08 81.73 22.68 77.11 22.91"/><polygon class="cls-11" points="57.23 34.58 57.23 37.62 59.92 37.62 59.92 35.88 61.15 35.88 61.15 34.58 64.41 34.58 64.41 32.94 66.63 32.94 66.63 30.43 65.4 30.43 65.4 28.83 63.93 28.83 63.93 27.02 61.2 27.02 61.2 28.83 59.73 28.83 59.73 31.84 57.61 31.84 57.23 34.58"/><polygon class="cls-12" points="81.69 24.55 81.69 29.11 83.45 29.11 83.45 31.32 85.44 31.32 85.44 34.17 88.13 34.17 88.13 35.65 90.35 35.65 90.35 38.84 87.99 38.84 87.99 39.76 90.28 39.76 90.28 43.85 94.64 43.85 94.64 44.3 97.19 44.3 97.19 43.55 94.15 43.55 94.15 41.69 92.59 41.69 92.59 38.54 96.77 38.54 96.77 40.49 99.06 40.49 99.06 37.68 97.26 37.68 97.26 36.11 93.02 36.11 93.02 34.24 89.99 34.24 89.99 32.7 87.82 32.7 87.82 30.43 86.15 30.43 86.15 28.63 83.76 28.63 83.76 24.08 81.69 24.55"/><polygon class="cls-6" points="17.06 70.5 17.06 68.41 19.06 68.41 19.06 67.06 20.89 67.06 20.89 64.7 22.3 64.7 22.3 62.68 28.79 62.68 28.79 59.37 30.26 59.37 30.26 56.81 32.74 56.81 32.74 55.26 33.74 55.26 33.74 53.03 35.8 53.03 35.8 51.28 37.27 51.28 37.27 48.92 40.63 48.92 40.63 46.89 48.06 46.89 48.06 45.07 50.71 45.07 50.71 43.52 51.83 43.52 51.83 41.43 54.01 41.43 54.01 39.61 56.61 39.61 56.61 37.65 57.67 37.65 57.67 35.63 62.38 35.63 62.38 37.65 64.45 37.65 64.45 39.34 66.16 39.34 66.16 42.03 68.16 42.03 68.16 43.65 70.11 43.65 70.11 45.41 71.99 45.41 71.99 47.3 80.01 47.3 80.01 49.86 81.42 49.86 81.42 51.07 82.48 51.07 82.48 55.59 84.49 55.59 84.49 57.15 86.43 57.15 86.43 61.4 90.32 61.4 90.32 65.11 93.45 65.11 93.45 67.13 95.57 67.13 95.57 69.02 97.51 69.02 97.51 70.97 17.06 70.5"/><polygon class="cls-7" points="22.25 65.44 22.25 66.79 24.13 66.79 24.13 69.02 27.61 69.02 27.61 66.45 31.91 66.45 31.91 64.57 29.79 64.57 29.79 62.14 22.6 62.14 22.25 65.44"/><polygon class="cls-7" points="38.75 50.84 38.75 54.89 37.07 54.89 37.07 56.88 39.46 56.88 39.46 54.99 40.81 54.99 40.81 53 44.88 53 44.88 54.72 42.73 54.72 42.73 56.71 40.69 56.71 40.69 59 42.67 59 42.67 60.96 40.63 60.96 40.63 63.01 42.43 63.01 42.43 65.21 44.2 65.21 44.2 66.89 46.41 66.89 46.41 64.73 44.2 64.73 44.2 62.51 46.41 62.51 46.41 64.3 46.41 65.17 48.21 65.17 48.21 68.61 49.65 68.61 49.65 66.45 51.8 66.45 51.8 68.78 58.79 68.78 58.79 66.89 61.32 66.89 61.32 64.87 59.05 64.87 59.05 62.85 57.28 62.85 57.28 60.55 55.58 60.55 55.58 58.36 51.95 58.36 51.95 57.11 49.77 57.11 49.77 54.68 47.56 54.68 47.56 52.76 46.26 52.76 46.26 50.67 47.83 50.67 47.83 46.89 46.03 46.89 46.03 48.98 44.44 48.98 44.44 51.18 42.84 51.18 42.84 48.81 44.17 48.81 44.17 46.89 40.99 46.89 40.99 50.8 38.75 50.84"/><polygon class="cls-7" points="95.72 70.96 95.72 69.2 94.11 69.2 94.11 70.59 90.22 70.59 90.22 68.57 88.26 68.57 88.26 70.59 86.73 70.59 86.73 68.78 81.34 68.78 81.34 66.45 79.42 66.45 79.42 64.61 77.61 64.61 77.61 66.68 79.14 66.68 79.14 68.78 77.22 68.78 77.22 66.86 75.72 66.86 75.72 64.61 73.72 64.61 73.72 62.72 71.87 62.72 71.87 64.75 73.29 64.75 73.29 66.64 75.29 66.64 75.29 68.78 72.19 68.78 72.19 66.59 70.54 66.59 70.54 63.13 68.26 63.13 68.26 58.9 66.14 58.9 66.14 56.97 64.33 56.97 64.33 51.21 66.1 51.21 66.1 49.1 64.33 49.1 64.33 50.35 62.72 50.35 62.72 48.83 61.32 48.83 61.32 46.89 62.72 46.89 62.72 45.27 64.72 45.27 64.72 42.58 61.89 42.58 61.89 41.05 60.4 41.05 60.4 39.2 59.14 39.2 59.14 35.42 62.38 35.42 62.38 37.65 64.45 37.65 64.45 39.34 66.16 39.34 66.16 42.03 68.16 42.03 68.16 43.65 70.11 43.65 70.11 45.41 71.99 45.41 71.99 47.48 80.01 47.48 80.01 49.86 81.42 49.86 81.42 51.07 82.48 51.07 82.48 55.59 84.49 55.59 84.49 57.15 86.43 57.15 86.43 61.4 90.32 61.4 90.32 65.11 93.45 65.11 93.45 67.13 95.57 67.13 95.72 69.2 97.51 69.2 97.51 70.97 95.72 70.96"/><rect class="cls-8" x="27.86" y="66.45" width="1.61" height="3.91"/><rect class="cls-8" x="31.6" y="63.08" width="1.73" height="7.29"/><polygon class="cls-8" points="35.33 70.14 35.33 66.72 36.7 66.72 36.7 70.37 35.33 70.37 35.33 70.14"/><rect class="cls-8" x="50.14" y="52.87" width="1.81" height="4.59"/><rect class="cls-8" x="53.68" y="52.87" width="1.9" height="6.03"/><rect class="cls-8" x="57.29" y="56.97" width="1.86" height="3.64"/><rect class="cls-8" x="62.68" y="66.72" width="1.61" height="4.05"/><rect class="cls-8" x="66.61" y="64.79" width="1.77" height="6"/><polygon class="cls-8" points="70.14 47.21 68.61 47.21 68.61 52.6 70.14 52.6 70.14 50.72 71.56 50.72 71.56 49.05 73.37 49.05 73.37 47.48 71.99 47.48 70.14 47.21"/><rect class="cls-8" x="84.72" y="58.9" width="1.49" height="5.89"/><polygon class="cls-13" points="93.02 34.24 93.02 37.62 93.02 40.79 95.54 40.79 95.54 43.13 97.19 43.13 97.19 45.8 98.22 45.8 98.22 48.3 99.44 48.3 99.44 51.87 101.22 51.87 101.22 55.17 103.12 55.17 103.12 57.84 109.42 57.84 109.42 52.6 106.62 52.6 106.62 49.91 104.92 49.91 104.92 47.21 103.12 47.21 103.12 44.34 101.6 44.34 101.6 40.14 99.92 40.14 99.92 37.14 96.61 37.14 96.61 34.24 93.02 34.24"/><polygon class="cls-13" points="99.12 73.9 99.12 76.1 101.92 76.1 101.92 78.5 106.12 78.5 106.12 80.2 108.43 80.2 108.43 82.3 112.92 82.3 112.92 80.2 116.22 80.2 116.22 78.6 118.62 78.6 118.62 76.8 121.68 76.8 123.17 76.15 124.72 74.7 129.72 72 131.52 72 131.52 69.7 133.22 69.7 133.22 67.79 135.34 67.79 135.34 66.45 136.89 66.45 136.89 64.79 136.89 63.4 133.82 63.4 133.82 61.84 130.62 61.84 130.62 60.61 128.52 60.61 128.52 59.4 127.12 59.4 127.12 57.84 124.82 57.84 124.82 56.5 122.34 56.5 122.34 55.17 120.02 55.17 120.02 56.97 117.32 56.97 117.32 55.89 114.02 55.89 114.02 57.84 101.52 57.84 100.52 57.46 100.52 58.79 97.59 58.79 97.59 56.97 95.71 56.97 95.71 58.9 93.32 58.9 93.32 62.14 95.71 62.14 95.71 65.58 96.72 65.58 96.72 71.4 99.17 71.4 99.12 73.9"/><polygon class="cls-14" points="94.08 36.07 94.08 38.27 95.54 38.27 95.54 40.14 93.02 40.14 93.02 35.84 94 35.65 94.08 36.07"/><polygon class="cls-14" points="98.62 40.67 99.89 40.67 99.89 44 101.22 44 101.22 46.04 102.16 46.04 102.16 48.01 103.58 48.01 103.58 49.91 101.47 49.91 101.47 48.01 100.22 48.01 100.22 46.04 99.49 46.04 99.49 44.27 98.62 44.27 98.62 40.67"/><polygon class="cls-14" points="107.53 54.72 107.53 56.92 108.98 56.92 108.98 58.79 106.46 58.79 106.46 54.49 107.44 54.3 107.53 54.72"/><polygon class="cls-13" points="130.42 60.38 130.42 57.79 134.96 57.79 134.96 59.08 138.42 59.08 138.42 57.79 142.02 57.79 142.02 59.08 145.05 59.08 145.05 60.4 147.35 60.4 147.35 63.07 147.35 65.45 146.02 65.45 146.02 68.02 143.35 68.02 143.35 69.97 140.82 69.97 140.82 72.4 137.89 72.4 132.89 74.4 127.94 74.4 127.94 76.8 122.68 76.8 122.68 75.8 127.68 59.61 130.42 60.38"/></g></g></svg>