<svg xmlns="http://www.w3.org/2000/svg" viewBox="0 0 179.42 183.24"><defs><style>.cls-1{fill:blue;}.cls-2{fill:aqua;}.cls-3{fill:violet;}.cls-4{fill:red;}.cls-5{fill:#ff0;}.cls-6{fill:orange;}.cls-7{fill:#bcdbed;}.cls-8{fill:green;}.cls-9{fill:#9c6745;}.cls-10{fill:#f2a169;}.cls-11{fill:#61e26c;}.cls-12{fill:#ae704b;}.cls-13{fill:#9f643c;}.cls-14{fill:#b17458;}.cls-15{fill:#38e744;}.cls-16{fill:#c58154;}.cls-17{fill:#efa574;}.cls-18{fill:#89a7cd;}.cls-19{fill:#a7ffaa;}.cls-20{fill:#9c673f;}.cls-21{fill:#b6774b;}.cls-22{fill:#bc804e;}.cls-23{fill:#814d28;}.cls-24{fill:#814f2e;}.cls-25{fill:#226426;}.cls-26{fill:#89bd7d;}.cls-27{fill:#66c561;}.cls-28{fill:#5fbe6c;}.cls-29{fill:#9e6641;}.cls-30{fill:#976242;}.cls-31{fill:#f6a66b;}.cls-32{fill:#23ad26;}.cls-33{fill:#26547e;}.cls-34{fill:#2da134;}.cls-35{fill:#fc1d1d;}.cls-36{fill:#c0b391;}.cls-37{fill:#e6d7b0;}.cls-38{fill:#f1e9d2;}.cls-39{fill:#4fc155;}.cls-40{fill:#73c6f2;}.cls-41{fill:#4f98c5;}</style></defs><title>Asset 4</title><g id="Layer_2" data-name="Layer 2"><g id="Layer_1-2" data-name="Layer 1"><polygon class="cls-1" points="34.13 33.24 37.82 34.79 37.52 35.14 33.81 33.59 34.13 33.24"/><polygon class="cls-2" points="36.25 32.42 37.84 33.08 38.29 33.27 38.19 33.61 35.47 32.47 35.69 32.22 36.25 32.42"/><path class="cls-3" d="M37.71,29.08l3.73,1.57-.31.37L37.5,29.5Z"/><polygon class="cls-4" points="39.06 27.85 42.46 29.27 42.16 29.62 38.54 28.11 38.84 27.75 39.06 27.85"/><path class="cls-5" d="M46.12,25.22l-3.95-1.65-.29.34,4,1.67Z"/><polygon class="cls-6" points="41.57 25.13 44.54 26.37 44.27 26.68 41.3 25.43 41.57 25.13"/><polygon class="cls-7" points="33.79 33.62 33.64 33.79 33.47 33.72 33.37 33.85 32.92 33.66 33.05 33.51 32.75 33.38 32.98 33.11 32.88 33.07 33.1 32.8 33.21 32.85 33.51 32.49 33.63 32.54 33.85 32.29 33.98 32.34 34.18 32.11 34.33 32.17 34.52 31.95 34.73 32.04 34.87 31.87 35.06 31.95 35.24 31.74 35.35 31.78 35.47 31.64 35.65 31.72 35.75 31.61 35.96 31.7 36.06 31.57 36.23 31.64 36.33 31.54 36.48 31.6 36.55 31.52 36.68 31.57 36.74 31.5 36.86 31.55 36.93 31.47 37.08 31.53 37.15 31.45 37.3 31.52 37.37 31.44 37.55 31.52 37.63 31.42 37.76 31.48 37.82 31.41 37.98 31.47 38.06 31.38 38.22 31.45 38.26 31.39 38.36 31.43 38.42 31.36 38.59 31.43 38.66 31.34 38.82 31.41 38.92 31.3 39.02 31.34 39.08 31.28 39.23 31.34 39.29 31.26 39.42 31.32 39.49 31.23 39.64 31.29 39.73 31.18 39.83 31.22 39.89 31.15 39.98 31.19 40.05 31.1 40.15 31.14 40.22 31.06 40.31 31.09 40.39 31 40.48 31.04 40.57 30.92 40.67 30.96 40.78 30.84 40.85 30.87 40.97 30.72 41.03 30.74 41.15 30.6 41.21 30.62 41.34 30.47 41.47 30.33 41.93 29.78 42.02 29.68 41.96 29.66 42.07 29.53 42.03 29.51 42.12 29.4 42.07 29.38 42.16 29.27 42.1 29.25 42.2 29.13 42.13 29.1 42.22 29 42.12 28.95 42.19 28.87 42.12 28.84 42.19 28.76 42.09 28.72 42.15 28.64 42.06 28.61 42.13 28.52 42.05 28.48 42.12 28.4 42 28.35 42.06 28.28 41.94 28.23 42.01 28.16 41.88 28.1 41.98 27.99 41.85 27.93 41.91 27.85 41.77 27.79 41.86 27.7 41.67 27.62 41.73 27.55 41.62 27.5 41.67 27.44 41.51 27.37 41.6 27.26 41.4 27.18 41.48 27.08 41.3 27.01 41.37 26.92 41.21 26.86 41.29 26.77 41.14 26.7 41.23 26.6 41.06 26.53 41.14 26.43 40.98 26.36 41.04 26.29 40.94 26.25 41.02 26.15 40.86 26.09 40.95 25.98 40.76 25.9 40.86 25.78 40.7 25.72 40.79 25.61 40.63 25.55 40.74 25.42 40.59 25.36 40.7 25.22 40.58 25.17 40.67 25.07 40.55 25.02 40.64 24.91 40.55 24.88 40.69 24.72 40.57 24.67 40.71 24.51 40.6 24.47 40.76 24.28 40.67 24.24 40.8 24.09 40.73 24.07 40.87 23.9 40.83 23.89 40.99 23.7 40.92 23.67 41.12 23.44 41.3 23.23 41.36 23.25 41.47 23.13 41.57 23.17 41.63 23.1 41.81 23.17 41.87 23.09 42.24 23.25 42.16 23.35 42.29 23.4 42.22 23.48 42.32 23.52 42.18 23.68 42.24 23.71 42.02 23.96 41.97 24.02 41.81 24.21 41.89 24.25 41.62 24.57 41.77 24.63 41.61 24.81 41.74 24.86 41.59 25.03 41.73 25.09 41.64 25.2 41.8 25.26 41.73 25.34 41.82 25.38 41.73 25.49 41.87 25.55 41.77 25.66 41.92 25.72 41.86 25.8 41.98 25.85 41.9 25.95 42.07 26.02 41.99 26.12 42.15 26.19 42.08 26.27 42.21 26.32 42.15 26.39 42.27 26.44 42.21 26.51 42.36 26.58 42.3 26.65 42.44 26.7 42.37 26.78 42.52 26.84 42.44 26.93 42.59 27 42.52 27.07 42.69 27.14 42.61 27.23 42.77 27.3 42.72 27.36 42.82 27.4 42.76 27.48 42.86 27.52 42.79 27.6 42.96 27.67 42.88 27.76 43.04 27.83 42.96 27.93 43.09 27.98 43 28.09 43.15 28.15 43.07 28.24 43.2 28.29 43.08 28.43 43.24 28.5 43.16 28.58 43.29 28.64 43.18 28.76 43.33 28.82 43.2 28.97 43.3 29.01 43.14 29.2 43.26 29.25 43.14 29.39 43.23 29.43 43.14 29.54 43.22 29.57 43.12 29.69 43.18 29.71 43.1 29.8 42.89 30.05 43 30.09 42.83 30.3 42.87 30.32 42.17 31.13 42.07 31.09 41.97 31.2 41.88 31.16 41.8 31.26 41.71 31.37 41.6 31.32 41.43 31.52 41.32 31.48 41.17 31.66 41.01 31.59 40.84 31.79 40.7 31.73 40.59 31.86 40.42 31.79 40.3 31.93 40.19 31.89 40.09 32.01 39.87 31.91 39.76 32.04 39.6 31.97 39.5 32.08 39.31 32.01 39.21 32.13 39.12 32.09 39.04 32.17 38.81 32.08 38.71 32.19 38.52 32.11 38.43 32.22 38.2 32.12 38.1 32.25 37.92 32.17 37.85 32.26 37.72 32.2 37.66 32.27 37.55 32.23 37.49 32.29 37.29 32.21 37.21 32.3 37.07 32.25 36.98 32.35 36.83 32.28 36.76 32.36 36.55 32.27 36.45 32.4 36.32 32.34 36.24 32.44 36.07 32.37 36 32.46 35.82 32.39 35.72 32.51 35.57 32.44 35.44 32.6 35.34 32.55 35.26 32.64 35.12 32.58 34.97 32.75 34.86 32.7 34.7 32.88 34.58 32.83 34.44 32.99 34.4 33.03 34.34 33.01 33.79 33.62"/><polygon class="cls-7" points="37.51 35.17 37.35 35.35 37.52 35.42 37.41 35.54 37.86 35.73 37.99 35.58 38.29 35.7 38.52 35.43 38.62 35.47 38.85 35.21 38.75 35.16 39.05 34.81 38.93 34.76 39.15 34.5 39.01 34.45 39.21 34.21 39.06 34.15 39.25 33.93 39.04 33.84 39.19 33.68 38.99 33.59 39.17 33.38 39.07 33.34 39.19 33.2 39.01 33.12 39.1 33.01 38.89 32.92 38.99 32.8 38.83 32.73 38.92 32.62 38.76 32.55 38.83 32.48 38.7 32.42 38.77 32.34 38.65 32.29 38.71 32.22 38.56 32.15 38.63 32.07 38.48 32.01 38.54 31.93 38.36 31.86 38.44 31.76 38.31 31.7 38.37 31.63 38.21 31.57 38.29 31.48 38.13 31.41 38.18 31.36 38.08 31.31 38.14 31.24 37.98 31.17 38.05 31.09 37.89 31.02 37.99 30.91 37.88 30.86 37.94 30.8 37.79 30.74 37.85 30.66 37.73 30.61 37.8 30.52 37.66 30.45 37.75 30.35 37.66 30.31 37.72 30.24 37.62 30.2 37.69 30.11 37.6 30.07 37.67 29.99 37.58 29.95 37.66 29.86 37.58 29.82 37.67 29.71 37.58 29.67 37.69 29.54 37.61 29.51 37.74 29.36 37.68 29.34 37.81 29.2 37.74 29.17 37.87 29.02 38 28.88 38.47 28.32 38.55 28.23 38.6 28.25 38.72 28.12 38.76 28.14 38.85 28.03 38.9 28.05 38.99 27.95 39.05 27.97 39.15 27.86 39.22 27.89 39.31 27.78 39.42 27.82 39.49 27.74 39.56 27.77 39.62 27.69 39.72 27.73 39.79 27.65 39.88 27.69 39.95 27.61 40.04 27.64 40.11 27.56 40.22 27.61 40.28 27.54 40.41 27.59 40.47 27.51 40.59 27.56 40.69 27.45 40.83 27.5 40.9 27.42 41.03 27.48 41.12 27.39 41.31 27.47 41.37 27.39 41.47 27.44 41.53 27.38 41.69 27.45 41.79 27.34 41.98 27.42 42.06 27.33 42.25 27.4 42.32 27.32 42.48 27.39 42.55 27.29 42.7 27.36 42.79 27.25 42.97 27.33 43.05 27.23 43.21 27.3 43.27 27.22 43.38 27.27 43.46 27.17 43.61 27.23 43.7 27.13 43.9 27.21 44 27.1 44.15 27.16 44.24 27.06 44.4 27.12 44.51 27 44.66 27.06 44.77 26.93 44.9 26.98 44.98 26.88 45.1 26.93 45.19 26.82 45.28 26.86 45.41 26.7 45.53 26.74 45.66 26.59 45.77 26.63 45.93 26.44 46.02 26.48 46.15 26.33 46.21 26.36 46.35 26.2 46.39 26.21 46.55 26.03 46.62 26.05 46.81 25.82 46.99 25.61 46.94 25.59 47.05 25.46 46.95 25.42 47.01 25.35 46.83 25.27 46.89 25.19 46.52 25.04 46.44 25.14 46.31 25.09 46.24 25.16 46.14 25.12 46 25.28 45.95 25.26 45.74 25.51 45.68 25.57 45.52 25.76 45.44 25.73 45.16 26.05 45.02 25.99 44.86 26.17 44.74 26.11 44.59 26.28 44.45 26.23 44.36 26.33 44.2 26.27 44.13 26.35 44.05 26.31 43.95 26.42 43.81 26.36 43.72 26.47 43.57 26.41 43.5 26.48 43.38 26.43 43.29 26.54 43.12 26.46 43.04 26.56 42.87 26.49 42.81 26.57 42.68 26.52 42.62 26.59 42.49 26.54 42.43 26.61 42.28 26.54 42.22 26.61 42.09 26.56 42.02 26.64 41.88 26.57 41.8 26.66 41.65 26.6 41.58 26.68 41.42 26.61 41.34 26.7 41.18 26.63 41.13 26.69 41.03 26.65 40.96 26.73 40.86 26.68 40.79 26.76 40.63 26.7 40.55 26.78 40.39 26.72 40.31 26.82 40.17 26.76 40.08 26.87 39.93 26.81 39.86 26.89 39.73 26.84 39.61 26.98 39.46 26.91 39.38 27 39.26 26.95 39.15 27.07 39.01 27.01 38.88 27.16 38.78 27.11 38.62 27.3 38.51 27.25 38.38 27.4 38.29 27.36 38.2 27.46 38.12 27.43 38.02 27.55 37.96 27.52 37.88 27.62 37.67 27.86 37.56 27.82 37.39 28.02 37.35 28 36.66 28.82 36.76 28.86 36.66 28.98 36.75 29.01 36.66 29.11 36.58 29.22 36.68 29.26 36.51 29.46 36.62 29.51 36.47 29.69 36.63 29.75 36.46 29.95 36.6 30.01 36.49 30.14 36.65 30.21 36.53 30.36 36.64 30.4 36.54 30.52 36.77 30.61 36.66 30.74 36.82 30.8 36.72 30.92 36.91 31 36.8 31.12 36.9 31.16 36.83 31.25 37.06 31.34 36.96 31.46 37.15 31.54 37.06 31.64 37.29 31.74 37.18 31.86 37.36 31.94 37.29 32.02 37.42 32.08 37.36 32.15 37.47 32.19 37.41 32.26 37.61 32.34 37.53 32.44 37.67 32.5 37.59 32.6 37.74 32.66 37.67 32.74 37.88 32.83 37.77 32.95 37.9 33.01 37.82 33.1 37.98 33.17 37.91 33.26 38.08 33.34 37.98 33.45 38.14 33.52 38.01 33.67 38.11 33.71 38.03 33.8 38.18 33.86 38.03 34.03 38.15 34.08 38 34.26 38.12 34.31 37.98 34.47 37.95 34.52 38.01 34.54 37.51 35.17"/><polygon class="cls-8" points="42.96 23.11 46.16 25.14 45.77 25.45 42.56 23.42 42.96 23.11"/><polygon class="cls-1" points="45.24 22.58 46.61 23.45 47 23.7 46.82 24.02 44.46 22.53 44.74 22.31 45.24 22.58"/><path class="cls-2" d="M47.5,19.46l3.24,2.05-.41.33-3.15-2Z"/><polygon class="cls-3" points="49.13 18.41 52.08 20.27 51.7 20.58 48.56 18.6 48.94 18.29 49.13 18.41"/><path class="cls-6" d="M56.66,16.73l-3.42-2.16-.37.31,3.46,2.18Z"/><polygon class="cls-4" points="52.26 16.04 54.83 17.67 54.5 17.94 51.92 16.31 52.26 16.04"/><polygon class="cls-7" points="42.53 23.44 42.34 23.6 42.2 23.51 42.06 23.62 41.68 23.37 41.84 23.24 41.58 23.08 41.88 22.84 41.78 22.78 42.07 22.55 42.16 22.6 42.55 22.29 42.65 22.36 42.93 22.13 43.04 22.2 43.3 22 43.43 22.08 43.67 21.89 43.85 22 44.03 21.85 44.2 21.96 44.42 21.77 44.52 21.83 44.67 21.7 44.83 21.8 44.95 21.71 45.13 21.83 45.27 21.72 45.41 21.81 45.53 21.71 45.66 21.8 45.75 21.73 45.86 21.8 45.95 21.73 46.05 21.79 46.13 21.73 46.26 21.81 46.35 21.74 46.49 21.82 46.57 21.76 46.72 21.86 46.83 21.77 46.94 21.84 47.02 21.78 47.16 21.87 47.26 21.79 47.39 21.87 47.45 21.82 47.54 21.88 47.62 21.81 47.76 21.91 47.85 21.83 47.99 21.92 48.11 21.82 48.2 21.88 48.28 21.82 48.4 21.9 48.48 21.83 48.59 21.9 48.69 21.82 48.82 21.9 48.94 21.81 49.02 21.86 49.1 21.8 49.18 21.85 49.27 21.77 49.35 21.83 49.45 21.75 49.52 21.8 49.62 21.72 49.7 21.77 49.82 21.66 49.9 21.71 50.04 21.6 50.1 21.64 50.26 21.52 50.31 21.55 50.47 21.42 50.52 21.45 50.68 21.32 50.84 21.19 51.44 20.71 51.54 20.62 51.49 20.59 51.63 20.48 51.6 20.45 51.71 20.36 51.67 20.33 51.78 20.24 51.73 20.2 51.85 20.1 51.8 20.06 51.91 19.97 51.82 19.91 51.91 19.84 51.85 19.8 51.94 19.73 51.85 19.68 51.93 19.61 51.85 19.56 51.95 19.48 51.88 19.44 51.97 19.36 51.87 19.3 51.94 19.24 51.84 19.17 51.92 19.11 51.81 19.04 51.94 18.93 51.82 18.86 51.91 18.79 51.78 18.72 51.89 18.63 51.72 18.53 51.8 18.46 51.71 18.41 51.77 18.35 51.63 18.26 51.75 18.16 51.58 18.06 51.68 17.97 51.52 17.87 51.61 17.8 51.47 17.71 51.57 17.63 51.44 17.55 51.55 17.46 51.41 17.36 51.51 17.28 51.37 17.19 51.45 17.13 51.36 17.07 51.47 16.98 51.33 16.9 51.44 16.81 51.27 16.7 51.4 16.6 51.27 16.52 51.38 16.42 51.24 16.34 51.38 16.23 51.24 16.14 51.39 16.02 51.29 15.96 51.39 15.87 51.29 15.8 51.41 15.71 51.33 15.66 51.5 15.52 51.41 15.46 51.58 15.32 51.48 15.26 51.69 15.1 51.6 15.04 51.77 14.91 51.71 14.88 51.89 14.73 51.85 14.71 52.05 14.55 52 14.51 52.25 14.31 52.48 14.12 52.53 14.15 52.67 14.04 52.75 14.1 52.83 14.03 52.99 14.13 53.07 14.06 53.39 14.26 53.28 14.35 53.4 14.42 53.31 14.49 53.4 14.55 53.22 14.69 53.27 14.72 53 14.94 52.93 14.99 52.72 15.16 52.8 15.21 52.45 15.49 52.58 15.57 52.38 15.73 52.49 15.8 52.31 15.95 52.43 16.03 52.31 16.12 52.45 16.21 52.36 16.28 52.44 16.33 52.32 16.42 52.45 16.5 52.32 16.6 52.45 16.68 52.37 16.75 52.48 16.81 52.37 16.9 52.52 17 52.41 17.08 52.55 17.17 52.47 17.24 52.58 17.31 52.5 17.37 52.61 17.44 52.53 17.5 52.66 17.59 52.59 17.65 52.7 17.72 52.62 17.79 52.74 17.87 52.65 17.95 52.78 18.03 52.7 18.1 52.84 18.19 52.74 18.27 52.88 18.36 52.81 18.41 52.9 18.46 52.82 18.54 52.91 18.59 52.82 18.66 52.96 18.75 52.87 18.83 53.01 18.92 52.9 19 53.02 19.08 52.9 19.17 53.03 19.25 52.93 19.33 53.04 19.4 52.9 19.52 53.03 19.61 52.94 19.68 53.04 19.75 52.91 19.86 53.03 19.94 52.88 20.07 52.96 20.12 52.76 20.29 52.86 20.35 52.7 20.48 52.79 20.53 52.67 20.63 52.74 20.67 52.61 20.77 52.66 20.81 52.57 20.89 52.3 21.11 52.39 21.16 52.17 21.34 52.2 21.36 51.33 22.08 51.24 22.02 51.11 22.13 51.03 22.08 50.93 22.16 50.81 22.26 50.72 22.2 50.51 22.37 50.41 22.31 50.22 22.47 50.08 22.38 49.86 22.56 49.74 22.48 49.6 22.59 49.46 22.5 49.3 22.63 49.2 22.57 49.08 22.68 48.88 22.55 48.75 22.66 48.61 22.57 48.48 22.68 48.32 22.57 48.19 22.68 48.11 22.63 48.01 22.71 47.81 22.58 47.68 22.68 47.52 22.58 47.4 22.67 47.21 22.55 47.08 22.66 46.92 22.56 46.83 22.63 46.72 22.56 46.64 22.62 46.54 22.56 46.47 22.62 46.3 22.51 46.19 22.59 46.07 22.52 45.96 22.61 45.83 22.52 45.74 22.59 45.56 22.48 45.43 22.59 45.32 22.52 45.21 22.6 45.07 22.51 44.97 22.59 44.82 22.5 44.7 22.6 44.56 22.51 44.39 22.65 44.31 22.59 44.22 22.67 44.09 22.59 43.91 22.74 43.8 22.67 43.61 22.84 43.5 22.77 43.32 22.91 43.28 22.95 43.22 22.91 42.53 23.44"/><polygon class="cls-7" points="45.76 25.48 45.56 25.63 45.71 25.72 45.58 25.83 45.96 26.08 46.13 25.95 46.38 26.11 46.68 25.87 46.77 25.93 47.06 25.69 46.97 25.63 47.35 25.32 47.25 25.26 47.52 25.03 47.41 24.96 47.66 24.75 47.53 24.67 47.77 24.48 47.59 24.36 47.77 24.21 47.6 24.11 47.83 23.92 47.74 23.87 47.9 23.74 47.74 23.64 47.86 23.54 47.67 23.43 47.81 23.32 47.66 23.23 47.78 23.13 47.64 23.05 47.73 22.98 47.62 22.91 47.7 22.84 47.6 22.77 47.68 22.7 47.55 22.62 47.64 22.55 47.51 22.46 47.59 22.4 47.43 22.3 47.53 22.21 47.42 22.14 47.49 22.08 47.36 21.99 47.46 21.91 47.32 21.83 47.38 21.78 47.29 21.73 47.37 21.66 47.23 21.57 47.32 21.49 47.18 21.41 47.3 21.31 47.21 21.25 47.28 21.19 47.16 21.11 47.24 21.05 47.13 20.98 47.23 20.9 47.1 20.82 47.22 20.72 47.14 20.67 47.21 20.61 47.13 20.55 47.22 20.48 47.14 20.43 47.23 20.35 47.16 20.3 47.25 20.22 47.18 20.18 47.31 20.07 47.23 20.02 47.36 19.91 47.3 19.87 47.45 19.74 47.41 19.71 47.56 19.59 47.51 19.55 47.67 19.42 47.83 19.29 48.43 18.81 48.53 18.72 48.58 18.75 48.72 18.64 48.76 18.66 48.88 18.57 48.92 18.59 49.03 18.5 49.09 18.54 49.21 18.43 49.27 18.47 49.39 18.38 49.48 18.43 49.57 18.36 49.63 18.4 49.72 18.33 49.8 18.38 49.88 18.32 49.96 18.36 50.06 18.29 50.13 18.33 50.22 18.26 50.32 18.32 50.4 18.26 50.5 18.33 50.59 18.26 50.69 18.33 50.82 18.23 50.94 18.3 51.02 18.23 51.14 18.31 51.24 18.23 51.41 18.33 51.49 18.27 51.58 18.32 51.65 18.27 51.79 18.36 51.91 18.27 52.08 18.37 52.18 18.29 52.34 18.39 52.43 18.32 52.57 18.4 52.67 18.32 52.8 18.41 52.91 18.31 53.06 18.41 53.17 18.32 53.31 18.41 53.39 18.35 53.48 18.4 53.58 18.32 53.71 18.4 53.83 18.31 54 18.42 54.12 18.32 54.25 18.4 54.37 18.31 54.51 18.4 54.64 18.29 54.77 18.37 54.92 18.25 55.03 18.32 55.14 18.23 55.24 18.29 55.36 18.2 55.43 18.25 55.6 18.11 55.7 18.17 55.87 18.03 55.97 18.09 56.17 17.92 56.25 17.97 56.41 17.84 56.47 17.88 56.64 17.73 56.68 17.76 56.88 17.59 56.94 17.63 57.19 17.42 57.41 17.24 57.37 17.21 57.51 17.09 57.42 17.04 57.49 16.98 57.34 16.88 57.43 16.81 57.11 16.61 57 16.7 56.89 16.62 56.8 16.69 56.71 16.64 56.54 16.78 56.49 16.75 56.22 16.97 56.15 17.03 55.94 17.19 55.87 17.15 55.52 17.43 55.4 17.35 55.2 17.51 55.09 17.44 54.91 17.59 54.79 17.51 54.67 17.61 54.53 17.52 54.45 17.59 54.37 17.54 54.25 17.64 54.13 17.56 54.01 17.66 53.88 17.58 53.8 17.64 53.69 17.57 53.58 17.67 53.43 17.57 53.32 17.66 53.18 17.57 53.1 17.64 52.99 17.57 52.91 17.63 52.8 17.56 52.73 17.62 52.59 17.54 52.52 17.6 52.4 17.53 52.32 17.6 52.19 17.52 52.1 17.6 51.97 17.51 51.88 17.58 51.74 17.5 51.64 17.58 51.5 17.49 51.44 17.54 51.35 17.48 51.26 17.55 51.17 17.5 51.09 17.56 50.94 17.48 50.85 17.55 50.71 17.46 50.6 17.55 50.48 17.48 50.37 17.57 50.24 17.49 50.15 17.57 50.03 17.5 49.89 17.62 49.75 17.54 49.66 17.61 49.55 17.55 49.41 17.66 49.29 17.57 49.13 17.7 49.04 17.65 48.84 17.81 48.74 17.75 48.58 17.88 48.5 17.82 48.38 17.92 48.32 17.87 48.19 17.98 48.13 17.95 48.03 18.03 47.77 18.24 47.68 18.18 47.45 18.36 47.42 18.34 46.54 19.06 46.63 19.11 46.5 19.21 46.58 19.26 46.47 19.35 46.36 19.44 46.45 19.5 46.24 19.68 46.33 19.74 46.14 19.9 46.28 19.98 46.06 20.16 46.19 20.24 46.05 20.35 46.19 20.44 46.03 20.57 46.13 20.63 46 20.73 46.19 20.85 46.06 20.96 46.2 21.05 46.07 21.16 46.23 21.26 46.1 21.36 46.18 21.41 46.09 21.49 46.29 21.62 46.17 21.72 46.33 21.83 46.22 21.92 46.41 22.04 46.28 22.15 46.43 22.25 46.34 22.32 46.45 22.39 46.38 22.45 46.48 22.52 46.4 22.57 46.58 22.68 46.47 22.77 46.59 22.85 46.49 22.93 46.62 23.02 46.54 23.09 46.72 23.2 46.58 23.31 46.69 23.38 46.59 23.47 46.73 23.56 46.63 23.64 46.78 23.73 46.66 23.83 46.79 23.92 46.62 24.05 46.71 24.11 46.62 24.18 46.75 24.26 46.56 24.41 46.66 24.48 46.47 24.64 46.57 24.71 46.4 24.85 46.35 24.89 46.41 24.92 45.76 25.48"/><polygon class="cls-5" points="53.93 14.32 56.73 16.63 56.3 16.91 53.49 14.59 53.93 14.32"/><polygon class="cls-8" points="56.27 13.99 57.48 14.98 57.82 15.27 57.58 15.57 55.52 13.87 55.83 13.67 56.27 13.99"/><path class="cls-1" d="M59.05,11.08l2.83,2.34-.45.29-2.76-2.27Z"/><polygon class="cls-2" points="60.84 10.19 63.42 12.31 62.99 12.59 60.24 10.32 60.67 10.05 60.84 10.19"/><path class="cls-4" d="M68.56,9.2l-3-2.47L65.15,7l3,2.49Z"/><polygon class="cls-3" points="64.34 8.1 66.59 9.96 66.22 10.2 63.96 8.34 64.34 8.1"/><polygon class="cls-7" points="53.46 14.61 53.24 14.75 53.12 14.64 52.97 14.74 52.63 14.46 52.81 14.34 52.58 14.15 52.92 13.94 52.84 13.88 53.16 13.67 53.24 13.73 53.67 13.46 53.77 13.53 54.08 13.33 54.18 13.42 54.46 13.24 54.58 13.33 54.85 13.16 55.01 13.29 55.21 13.16 55.36 13.28 55.62 13.11 55.69 13.18 55.87 13.07 56.01 13.18 56.14 13.1 56.3 13.23 56.45 13.13 56.58 13.24 56.71 13.15 56.83 13.25 56.93 13.19 57.03 13.27 57.12 13.21 57.21 13.28 57.3 13.22 57.42 13.32 57.52 13.25 57.64 13.35 57.73 13.29 57.87 13.4 57.98 13.33 58.09 13.41 58.17 13.36 58.29 13.46 58.4 13.38 58.52 13.48 58.59 13.44 58.66 13.5 58.76 13.45 58.88 13.55 58.98 13.48 59.1 13.58 59.24 13.49 59.32 13.56 59.4 13.51 59.51 13.6 59.6 13.54 59.7 13.62 59.81 13.55 59.92 13.64 60.06 13.56 60.13 13.62 60.21 13.56 60.29 13.62 60.39 13.56 60.46 13.62 60.57 13.55 60.63 13.6 60.75 13.53 60.81 13.59 60.95 13.49 61.02 13.55 61.18 13.46 61.23 13.5 61.41 13.39 61.45 13.42 61.63 13.31 61.68 13.35 61.86 13.23 62.04 13.12 62.71 12.69 62.83 12.61 62.78 12.58 62.95 12.47 62.91 12.45 63.05 12.36 63.01 12.33 63.13 12.25 63.09 12.21 63.23 12.12 63.18 12.08 63.31 11.99 63.23 11.93 63.33 11.86 63.28 11.82 63.38 11.76 63.3 11.7 63.39 11.64 63.33 11.58 63.43 11.51 63.37 11.46 63.47 11.4 63.38 11.32 63.47 11.27 63.37 11.19 63.47 11.13 63.37 11.05 63.52 10.96 63.41 10.88 63.51 10.82 63.4 10.73 63.52 10.66 63.38 10.54 63.46 10.48 63.38 10.41 63.46 10.37 63.33 10.26 63.46 10.18 63.31 10.05 63.43 9.98 63.29 9.87 63.39 9.8 63.27 9.7 63.39 9.63 63.27 9.54 63.4 9.46 63.27 9.35 63.38 9.27 63.26 9.17 63.35 9.11 63.28 9.05 63.39 8.97 63.27 8.88 63.4 8.79 63.25 8.67 63.4 8.58 63.28 8.49 63.41 8.41 63.28 8.3 63.44 8.21 63.32 8.11 63.49 8.01 63.4 7.93 63.52 7.85 63.43 7.78 63.56 7.69 63.49 7.64 63.69 7.51 63.6 7.44 63.8 7.32 63.72 7.25 63.95 7.11 63.87 7.05 64.06 6.93 64.01 6.89 64.21 6.76 64.17 6.74 64.4 6.59 64.36 6.55 64.64 6.37 64.89 6.21 64.94 6.24 65.09 6.14 65.17 6.21 65.26 6.15 65.39 6.26 65.49 6.2 65.77 6.43 65.65 6.51 65.75 6.59 65.65 6.65 65.72 6.71 65.53 6.84 65.57 6.88 65.26 7.07 65.19 7.12 64.95 7.27 65.02 7.32 64.63 7.57 64.74 7.66 64.52 7.8 64.61 7.88 64.41 8.02 64.51 8.1 64.38 8.19 64.5 8.29 64.4 8.35 64.47 8.4 64.34 8.49 64.44 8.58 64.31 8.66 64.42 8.76 64.33 8.82 64.42 8.89 64.3 8.97 64.43 9.08 64.31 9.16 64.43 9.26 64.34 9.32 64.44 9.4 64.35 9.46 64.44 9.53 64.36 9.59 64.47 9.68 64.38 9.74 64.48 9.82 64.39 9.88 64.5 9.97 64.39 10.04 64.51 10.14 64.41 10.2 64.53 10.3 64.42 10.37 64.54 10.47 64.47 10.52 64.55 10.58 64.45 10.64 64.53 10.71 64.44 10.77 64.56 10.87 64.45 10.94 64.58 11.04 64.45 11.12 64.56 11.21 64.42 11.29 64.53 11.38 64.43 11.45 64.53 11.53 64.36 11.64 64.48 11.73 64.37 11.8 64.46 11.88 64.31 11.98 64.42 12.07 64.24 12.18 64.32 12.24 64.09 12.39 64.18 12.46 64 12.58 64.07 12.64 63.95 12.72 64 12.77 63.86 12.86 63.9 12.9 63.79 12.97 63.49 13.16 63.57 13.23 63.32 13.39 63.35 13.41 62.36 14.05 62.29 13.98 62.14 14.07 62.08 14.02 61.95 14.1 61.83 14.18 61.75 14.11 61.5 14.27 61.42 14.2 61.2 14.34 61.08 14.23 60.83 14.39 60.73 14.3 60.57 14.4 60.45 14.3 60.27 14.42 60.18 14.35 60.04 14.44 59.87 14.3 59.72 14.39 59.59 14.29 59.45 14.38 59.31 14.27 59.16 14.36 59.09 14.3 58.99 14.37 58.81 14.22 58.66 14.31 58.52 14.2 58.39 14.28 58.22 14.14 58.07 14.23 57.94 14.12 57.83 14.19 57.74 14.11 57.65 14.16 57.56 14.09 57.48 14.14 57.33 14.02 57.21 14.09 57.11 14.01 56.99 14.08 56.87 13.99 56.77 14.05 56.61 13.92 56.46 14.02 56.36 13.94 56.25 14.01 56.12 13.91 56.01 13.98 55.88 13.87 55.74 13.96 55.62 13.86 55.43 13.98 55.35 13.92 55.25 13.99 55.14 13.89 54.94 14.03 54.85 13.95 54.62 14.1 54.53 14.02 54.33 14.15 54.28 14.18 54.23 14.14 53.46 14.61"/><polygon class="cls-7" points="56.28 16.93 56.06 17.07 56.19 17.18 56.04 17.27 56.38 17.55 56.56 17.43 56.78 17.62 57.12 17.41 57.2 17.47 57.52 17.27 57.44 17.2 57.88 16.92 57.79 16.85 58.1 16.65 58 16.57 58.28 16.38 58.17 16.29 58.44 16.12 58.28 15.99 58.48 15.86 58.34 15.73 58.59 15.57 58.52 15.51 58.69 15.39 58.55 15.28 58.69 15.19 58.52 15.06 58.68 14.96 58.55 14.86 58.68 14.77 58.56 14.68 58.66 14.61 58.56 14.53 58.66 14.47 58.57 14.4 58.66 14.34 58.55 14.25 58.65 14.18 58.53 14.08 58.62 14.02 58.48 13.91 58.6 13.84 58.5 13.75 58.59 13.7 58.47 13.6 58.58 13.53 58.46 13.43 58.53 13.39 58.45 13.33 58.54 13.27 58.41 13.16 58.52 13.1 58.4 13 58.53 12.91 58.45 12.85 58.54 12.79 58.42 12.7 58.52 12.64 58.42 12.56 58.53 12.49 58.42 12.4 58.55 12.32 58.48 12.26 58.57 12.2 58.49 12.14 58.6 12.08 58.52 12.02 58.63 11.95 58.56 11.89 58.68 11.82 58.61 11.77 58.75 11.68 58.68 11.62 58.84 11.52 58.78 11.48 58.96 11.36 58.91 11.33 59.09 11.21 59.05 11.18 59.23 11.06 59.41 10.95 60.08 10.52 60.2 10.44 60.24 10.48 60.4 10.37 60.43 10.4 60.57 10.32 60.6 10.35 60.73 10.27 60.78 10.3 60.92 10.21 60.97 10.26 61.1 10.17 61.19 10.24 61.29 10.17 61.34 10.22 61.43 10.15 61.51 10.22 61.6 10.16 61.67 10.21 61.78 10.15 61.84 10.2 61.94 10.13 62.03 10.21 62.12 10.15 62.21 10.23 62.3 10.17 62.4 10.25 62.54 10.16 62.64 10.24 62.74 10.18 62.84 10.27 62.96 10.19 63.1 10.31 63.19 10.26 63.27 10.32 63.35 10.27 63.47 10.38 63.61 10.29 63.76 10.42 63.87 10.34 64.01 10.46 64.11 10.39 64.23 10.49 64.34 10.42 64.46 10.51 64.58 10.43 64.72 10.54 64.83 10.47 64.96 10.57 65.05 10.51 65.13 10.57 65.24 10.5 65.36 10.6 65.49 10.51 65.64 10.64 65.78 10.55 65.89 10.64 66.02 10.56 66.14 10.66 66.3 10.56 66.41 10.66 66.58 10.55 66.67 10.63 66.79 10.55 66.88 10.62 67.01 10.54 67.08 10.6 67.28 10.47 67.36 10.54 67.55 10.42 67.63 10.48 67.86 10.34 67.94 10.4 68.12 10.28 68.17 10.32 68.36 10.19 68.4 10.22 68.63 10.07 68.67 10.11 68.96 9.93 69.21 9.77 69.17 9.73 69.33 9.63 69.25 9.57 69.34 9.52 69.2 9.4 69.3 9.34 69.02 9.11 68.9 9.19 68.8 9.11 68.7 9.17 68.63 9.11 68.43 9.23 68.38 9.2 68.08 9.39 68 9.44 67.77 9.59 67.71 9.54 67.31 9.79 67.2 9.7 66.98 9.84 66.89 9.76 66.68 9.89 66.57 9.8 66.44 9.89 66.32 9.79 66.22 9.85 66.16 9.79 66.03 9.88 65.92 9.79 65.78 9.88 65.67 9.79 65.58 9.84 65.48 9.77 65.36 9.85 65.22 9.74 65.11 9.81 64.98 9.71 64.89 9.77 64.79 9.69 64.7 9.75 64.61 9.67 64.52 9.73 64.41 9.63 64.32 9.69 64.22 9.6 64.12 9.66 64.01 9.57 63.91 9.64 63.79 9.55 63.7 9.61 63.57 9.51 63.46 9.58 63.34 9.48 63.27 9.52 63.19 9.46 63.09 9.52 63.01 9.46 62.92 9.52 62.79 9.42 62.69 9.48 62.56 9.38 62.44 9.46 62.34 9.38 62.21 9.46 62.1 9.37 61.99 9.44 61.89 9.36 61.73 9.46 61.61 9.37 61.5 9.44 61.41 9.36 61.25 9.46 61.14 9.36 60.97 9.48 60.89 9.41 60.66 9.56 60.57 9.49 60.39 9.6 60.32 9.54 60.2 9.62 60.13 9.57 59.99 9.67 59.94 9.63 59.83 9.7 59.53 9.89 59.45 9.83 59.2 9.98 59.17 9.96 58.18 10.59 58.26 10.66 58.11 10.75 58.18 10.8 58.06 10.88 57.93 10.96 58.01 11.03 57.77 11.19 57.85 11.26 57.63 11.39 57.76 11.5 57.51 11.65 57.62 11.74 57.46 11.84 57.58 11.94 57.41 12.05 57.49 12.13 57.35 12.22 57.52 12.36 57.37 12.45 57.49 12.55 57.35 12.65 57.49 12.76 57.34 12.86 57.41 12.91 57.3 12.98 57.48 13.13 57.34 13.22 57.48 13.34 57.36 13.42 57.53 13.56 57.38 13.66 57.51 13.77 57.41 13.84 57.51 13.92 57.42 13.97 57.51 14.04 57.42 14.09 57.58 14.22 57.46 14.29 57.56 14.38 57.44 14.46 57.56 14.56 57.47 14.62 57.62 14.75 57.47 14.85 57.57 14.93 57.45 15 57.57 15.1 57.46 15.17 57.59 15.28 57.45 15.37 57.57 15.47 57.38 15.59 57.46 15.65 57.36 15.72 57.47 15.81 57.26 15.94 57.35 16.02 57.12 16.16 57.22 16.24 57.02 16.36 56.97 16.4 57.02 16.44 56.28 16.93"/><polygon class="cls-9" points="7.84 58.05 0 60.99 0 62.73 2.23 62.73 2.23 73.18 4.26 73.18 4.26 81.41 6.89 81.41 6.89 87.19 9.94 87.19 9.94 92.97 13.18 92.97 13.18 97.19 15.82 97.19 15.82 102.53 18.66 102.53 18.66 109.65 21.7 109.65 21.7 114.98 23.93 114.98 23.93 122.32 27.17 122.32 27.17 128.99 30.42 128.99 30.42 134.33 33.05 134.33 33.05 138.1 36.3 138.1 36.3 134.55 37.72 134.55 37.72 130.32 37.72 116.09 39.34 116.09 39.34 118.98 41.17 118.98 41.17 121.32 42.79 121.32 42.79 131.44 45.12 131.44 45.12 126.66 47.15 126.66 47.15 128.32 48.77 128.32 48.77 129.77 50.49 129.77 50.49 131.44 52.22 131.44 52.22 132.55 54.04 132.55 54.04 134.33 55.87 134.33 55.87 136.77 58 136.77 58 139.22 60.13 139.22 60.13 141.88 61.95 141.88 61.95 146.44 64.18 146.44 64.18 152.34 67.53 152.34 67.53 158.23 70.57 158.23 70.57 164.23 73 164.23 73 161.45 74.52 161.45 74.52 159.67 77.26 159.67 77.26 157.67 78.98 157.67 78.98 155.67 81.01 155.67 81.01 159.78 83.85 159.78 83.85 173.12 85.78 173.12 85.78 183.24 89.83 183.24 89.83 174.12 92.27 174.12 92.27 161.01 95.21 161.01 95.21 157.67 98.35 157.67 98.35 154.34 101.29 154.34 101.29 149.67 104.54 149.67 104.54 145.89 106.56 145.89 106.56 150.89 108.59 150.89 108.59 157 110.42 157 110.42 160.34 112.55 160.34 112.55 157.34 114.88 157.34 114.88 154.22 116.6 154.22 116.6 149.89 118.63 149.89 118.63 147.22 120.76 147.22 120.76 145.22 122.58 145.22 122.58 142.55 124.71 142.55 124.71 140.22 126.54 140.22 126.54 136.55 128.26 136.55 128.26 132.55 130.49 132.55 130.49 129.21 132.01 129.21 132.01 124.1 134.24 124.1 134.24 118.87 135.97 118.87 135.97 115.76 138 115.76 138 113.09 139.82 113.09 139.82 110.31 141.24 110.31 141.24 113.2 142.25 113.2 142.25 116.43 142.25 129.21 144.49 129.21 144.49 122.32 145.6 122.32 145.6 124.54 147.73 124.54 147.73 121.76 149.15 121.76 149.15 126.1 151.38 126.1 151.38 121.21 152.7 121.21 152.7 122.88 154.22 122.88 154.22 119.98 156.04 119.98 156.04 121.76 158.28 121.76 158.28 108.98 161.32 108.98 161.32 103.86 163.04 103.86 163.04 99.03 165.47 99.03 165.47 93.64 168.31 93.64 168.31 86.41 170.54 86.41 170.54 79.46 170.54 72.07 164.05 64.96 7.84 58.05"/><polygon class="cls-10" points="38.52 41.2 31.43 43.07 31.43 44.01 29.03 44.01 29.03 45.61 25.82 45.61 25.82 46.95 22.07 46.95 22.07 48.69 16.45 48.69 16.45 50.7 12.57 50.7 12.57 53.1 9.9 53.1 9.9 54.57 6.42 54.57 6.42 57.38 2.54 57.38 2.54 59.52 0 59.52 0 60.99 2.01 60.99 2.01 63.13 4.28 63.13 4.28 66.08 6.15 66.08 6.15 68.49 8.69 68.49 8.69 70.89 11.1 70.89 11.1 72.77 15.25 72.77 15.25 74.37 19.26 74.37 19.26 75.71 19.26 77.18 16.59 77.18 16.59 78.92 14.71 78.92 14.71 80.39 16.05 80.39 16.05 82.67 13.64 82.67 13.64 84.67 15.12 84.67 15.12 86.54 17.39 86.54 17.39 88.42 19.26 88.42 19.26 90.29 22.34 90.29 22.34 92.43 27.02 92.43 27.02 93.9 30.9 93.9 30.9 96.31 34.51 96.31 34.51 98.85 37.85 98.85 37.85 101.39 40.53 101.39 40.53 103.4 43.34 103.4 43.34 101.39 46.15 101.39 46.15 103.4 50.03 103.4 50.03 104.47 53.91 104.47 53.91 103 58.05 103 58.05 104.47 59.52 104.47 59.52 108.22 61.8 108.22 61.8 109.95 65.81 109.95 65.81 111.02 71.03 111.02 71.03 109.69 73.57 109.69 73.57 111.56 76.11 111.56 76.11 113.56 82 113.56 82 115.71 90.02 115.71 90.02 117.58 97.11 117.58 97.11 119.45 102.86 119.45 102.86 117.98 107.14 117.98 107.14 116.24 112.76 116.24 112.76 114.23 116.91 114.23 116.91 112.36 121.05 112.36 121.05 110.49 126.44 110.49 126.44 108.48 129.95 108.48 129.95 105.07 131.85 105.07 131.85 103.06 134.06 103.06 134.06 98.55 137.37 98.55 137.37 96.94 141.99 96.94 141.99 98.75 144.09 98.75 144.09 97.35 146.6 97.35 146.6 98.35 149.21 98.35 149.21 96.44 152.32 96.44 152.32 97.65 154.63 97.65 154.63 96.14 156.94 96.14 156.94 94.84 158.74 94.84 158.74 93.03 161.85 93.03 161.85 90.52 165.76 90.52 165.76 88.82 170.58 88.82 170.58 86.51 173.69 86.51 173.69 84.7 175.5 84.7 175.5 81.9 171.08 81.9 171.08 79.19 167.27 79.19 167.27 76.18 169.68 76.18 169.68 73.57 171.88 73.57 171.88 71.16 175.5 71.16 175.5 69.32 176.63 69.32 176.63 67.65 177.7 67.65 177.7 65.68 176.03 65.68 176.03 64.11 173.99 64.11 173.99 62.33 166.97 62.33 166.97 60.76 162.22 60.76 127.57 53.44 127.57 51.11 122.5 50.75 109.14 45.56 105.93 45.33 105.93 44.02 100.2 43.72 73.17 37.85 38.52 41.2"/><polygon class="cls-11" points="37.8 44.63 37.8 46.3 31.48 46.3 31.48 49.19 26.76 49.19 26.76 51.39 22.91 51.39 22.91 53.24 18.09 53.24 18.09 56.31 15.73 56.31 15.73 58.09 17.76 58.09 17.76 59.31 15.73 59.31 15.73 61.31 12.19 61.31 12.19 62.64 14.23 62.64 14.23 64.31 16.59 64.31 16.59 65.64 22.8 65.64 22.8 66.65 24.19 66.65 24.19 67.87 20.76 67.87 20.76 68.98 18.19 68.98 18.19 70.09 20.34 70.09 20.34 71.2 23.33 71.2 23.33 72.76 24.3 72.76 24.3 74.65 22.69 74.65 22.69 76.21 21.3 76.21 21.3 77.76 23.98 77.76 23.98 79.99 26.76 79.99 26.76 82.1 23.12 82.1 23.12 84.21 21.73 84.21 21.73 87.32 21.73 88.1 19.26 88.1 19.26 89.71 22.91 89.71 22.91 91.38 28.8 91.38 28.8 92.44 31.1 92.44 31.1 91.33 37.42 91.33 37.42 92.44 40.21 92.44 40.21 93.49 45.88 93.49 45.88 95.88 49.58 95.88 49.58 97.33 51.56 97.33 51.56 98.55 54.51 98.55 54.51 99.81 59.01 99.81 59.01 101.22 62.51 101.22 62.51 102.33 67.93 102.33 67.93 103.52 65.65 103.52 65.65 105.07 63.94 105.07 63.94 105.81 73.08 105.81 73.08 104.63 75.86 104.63 75.86 102.48 82.86 102.48 82.86 99.59 89.79 99.59 89.79 98.11 95.93 98.11 95.93 99.29 94.57 99.29 94.57 100.92 92.57 100.92 92.57 102.85 95.93 102.85 95.93 103.96 101.21 103.96 101.21 106.11 104.93 106.11 104.93 107.15 99.14 107.15 99.14 108.48 95.72 108.48 95.72 109.89 98.72 109.89 98.72 111.22 103.36 111.22 103.36 112.63 106.21 112.63 106.21 111.37 109.93 111.37 109.93 109.67 114.57 109.67 114.57 107.67 117.43 107.67 117.43 105.81 123.28 105.81 123.28 104.92 126.57 104.92 126.57 102.92 129.64 102.92 129.64 100.26 127.35 100.26 127.35 97.59 129.64 97.59 129.64 95.88 134.35 95.88 134.35 93.88 137.92 93.88 137.92 92.55 142.35 92.55 142.35 90.55 144.64 90.55 144.64 88.62 148.35 88.62 148.35 86.38 156.35 86.38 156.35 84.92 164.35 84.92 164.35 83.73 168.85 83.73 168.85 82.1 170.54 82.1 170.02 79.29 166.6 79.1 164.68 78.96 163.28 67.2 161.82 67.17 161.53 65.56 159.6 65.44 159.03 62.67 155.56 61.52 153.49 61.52 153.35 60.01 107.07 52.75 101.36 52.75 101.36 54.53 88.85 54.53 88.85 56.6 77.36 56.6 77.36 58.83 71.58 58.83 71.58 56.42 64.19 56.42 64.19 57.57 59.65 57.57 59.65 55.86 55.87 55.86 55.87 54.79 51.4 54.79 51.4 53.45 45.37 53.45 45.37 51.23 42.97 51.23 42.97 45.01 37.8 44.63"/><polygon class="cls-12" points="39.24 46.97 39.24 41.8 38.23 41.8 38.23 38.19 37.58 38.19 37.58 34.02 36.89 34.02 36.89 19.62 37.58 19.62 37.58 18.51 38.38 18.51 38.38 12.73 39.24 12.73 39.24 6.22 40.8 6.22 40.8 14.06 41.81 14.06 41.81 15.56 42.67 15.56 42.67 20.45 44.28 20.45 44.28 24.4 45.51 24.4 45.51 26.07 45.51 31.63 45.51 32.3 46.63 32.3 46.63 25.68 48.4 25.68 48.4 21.51 49.85 21.51 49.85 17.79 51.99 17.79 51.99 14.79 54.45 14.79 54.45 12.39 57.94 12.39 57.94 7.23 57.94 5.78 58.85 5.78 58.85 4.67 60.83 4.67 60.83 2.95 62.92 2.95 62.92 1.28 73.63 1.28 73.63 0 77.38 0 77.38 1.5 81.29 1.5 81.29 3.61 82.73 3.61 82.73 5.67 81.18 5.67 81.18 9.51 83.48 9.51 83.48 12.56 84.45 13.56 84.45 17.34 85.09 51.08 39.24 46.97"/><polygon class="cls-13" points="81.98 29.46 81.98 31.74 83.59 31.74 83.59 32.57 87.82 32.57 87.82 34.13 93.18 34.13 93.18 36.8 97.95 36.8 97.95 52.03 76.9 52.03 76.9 48.52 75.5 48.52 75.5 45.63 73.63 45.63 73.63 41.97 73.63 40.19 74.43 40.19 74.43 37.08 75.61 37.08 75.61 34.18 77 34.18 77 30.74 78.08 30.74 78.08 28.24 81.98 28.24 81.98 29.46"/><polygon class="cls-14" points="92.22 37.85 92.22 38.74 93.41 38.74 93.41 39.41 94.95 39.41 94.95 40.74 96.08 40.74 96.08 41.89 97.68 41.89 97.68 56.34 100.46 56.34 100.46 39.93 98.53 39.93 98.53 38.34 96.77 38.34 96.77 36.41 92.22 36.41 92.22 37.85"/><polygon class="cls-15" points="94.79 36.41 92.16 36.41 92.16 37.35 87.61 37.35 87.61 34.13 84.56 34.13 84.56 30.18 81.5 30.18 81.5 26.68 83.91 26.68 83.91 22.96 89.48 22.96 89.48 20.07 93.72 20.07 93.72 15.29 95.86 15.29 95.86 11.62 100.52 11.62 100.52 9.28 104.48 9.28 104.48 6.78 110.05 6.78 110.05 8.67 112.84 8.67 112.84 5.89 116.16 5.89 118.14 5.89 118.14 8.73 121.14 8.73 121.14 11.78 121.14 13.34 123.07 13.34 123.07 15.56 125.8 15.56 125.8 17.34 128.85 17.34 128.85 21.34 130.35 21.34 130.35 23.79 127.62 23.79 127.62 25.29 129.12 25.29 129.12 27.13 127.62 27.13 127.62 29.02 129.6 29.02 129.6 30.52 126.66 30.52 126.66 32.02 124.89 32.02 124.89 34.24 114.44 34.24 114.44 37.08 110.75 37.08 110.75 38.8 104.64 38.8 102.23 38.8 102.23 36.41 99.29 36.41 99.29 38.8 94.79 38.8 94.79 36.41"/><polygon class="cls-16" points="18.51 89.88 18.51 95.22 20.76 95.22 20.76 99.77 22.26 99.77 22.26 102.67 24.08 102.67 24.08 107.11 25.58 107.11 25.58 113.34 27.73 113.34 27.73 118.56 29.55 118.56 29.55 115.12 30.41 115.12 30.41 109.78 32.87 109.78 32.87 104.89 34.05 104.89 34.05 96.31 30.9 96.31 30.9 93.9 27.02 93.9 27.02 92.43 22.34 92.43 22.34 90.29 18.51 89.88"/><polygon class="cls-16" points="50.03 103.4 50.03 107 51.51 107 51.51 110.11 53.44 110.11 53.44 113.78 55.26 113.78 55.26 117.32 58.9 117.32 58.9 121.01 62.33 121.01 62.33 129.01 65.76 129.01 65.76 132.68 68.97 132.68 68.97 138.02 71.97 138.02 71.97 143.13 75.4 143.13 75.4 145.91 79.25 145.91 79.25 148.24 83 148.24 83 154.25 86 154.25 86 169.14 88.85 169.14 88.85 151.36 91.37 151.36 91.37 147.35 94.57 147.35 94.57 143.91 98 143.91 98 139.46 100.57 139.46 100.57 134.24 103.78 134.24 103.78 129.68 107.43 129.68 107.43 117.98 102.86 117.98 102.86 119.45 97.11 119.45 97.11 117.58 90.02 117.58 90.02 115.71 82 115.71 82 113.56 76.11 113.56 76.11 111.56 73.57 111.56 73.57 109.69 71.03 109.69 71.03 111.02 65.81 111.02 65.81 109.95 61.8 109.95 61.8 108.22 59.52 108.22 59.52 104.47 58.05 104.47 58.05 103 53.91 103 53.91 104.47 50.03 104.47 50.03 103.4"/><polygon class="cls-17" points="74 124.56 76.15 124.56 76.15 122.01 78.73 122.01 78.73 123.29 81.18 123.29 81.18 121.45 85.27 121.45 85.27 126.12 87.18 126.12 87.18 129.57 90.18 129.57 90.18 137.13 86.97 137.13 86.97 142.02 84.61 142.02 84.61 138.68 81.29 138.68 81.29 134.9 78.73 134.9 78.73 131.74 74.86 131.74 74.86 129.12 73.47 129.12 73.47 124.56 74 124.56"/><polygon class="cls-16" points="112.76 116.24 112.76 122.12 114.61 122.12 114.61 124.56 116.11 124.56 116.11 130.12 117.93 130.12 117.93 136.07 120.07 136.07 120.07 132.79 122 132.79 122 129.46 123.5 129.46 123.5 125.45 125.1 125.45 125.1 121.45 127.89 121.45 127.89 118.01 130.89 118.01 130.89 105.07 129.95 105.07 129.95 108.48 126.44 108.48 126.44 110.49 121.05 110.49 121.05 112.36 116.91 112.36 116.91 114.23 112.76 114.23 112.76 116.24"/><polygon class="cls-17" points="146.1 103.89 149.53 103.89 149.53 105.89 151.56 105.89 151.56 109.11 154.03 109.11 154.03 112.63 150.06 112.63 150.06 115.56 146.1 115.56 146.1 112 143.74 112 143.74 108 145.67 108 145.67 103.89 146.1 103.89"/><polygon class="cls-18" points="17.39 58.87 17.26 60.78 14.93 60.6 14.83 61.94 15.99 62.03 15.78 65.13 13.52 64.96 13.33 67.62 15.04 67.75 14.82 70.86 13.11 70.73 12.95 72.94 16.37 73.21 16.25 74.92 18.53 75.1 18.39 77.08 22.09 77.36 21.93 79.58 28.45 80.08 28.6 78.01 30.63 78.16 30.78 76.06 35.05 76.38 35.21 74.2 38.11 74.43 38.33 71.32 40.41 71.48 40.63 68.38 38.55 68.22 38.76 65.26 35.86 65.04 36.06 62.22 31.79 61.89 31.88 60.58 26.89 60.2 27.09 57.38 23.39 57.1 23.27 58.87 21.27 58.72 21.4 56.95 17.55 56.65 17.39 58.87"/><polygon class="cls-19" points="109.43 65.52 111.57 65.52 111.57 67.14 110.12 67.14 110.12 68.78 107.43 68.78 107.43 65.52 109.43 65.52"/><polygon class="cls-20" points="33.08 51.39 33.08 52.45 35.37 52.45 35.37 53.42 41.22 53.42 41.22 52.41 44.58 52.41 44.58 53.94 56.65 53.94 56.65 53.12 60.51 53.12 60.51 52.16 63.94 52.16 63.94 50.82 69.08 50.82 69.08 48.9 70.58 48.9 70.58 43.41 72.29 43.41 72.29 42 71.36 42 71.36 39.85 69.86 39.85 69.86 35.11 67.29 35.11 67.29 32.89 64.44 32.89 64.44 29.48 62.44 29.48 62.44 26.07 59.65 26.07 59.65 24.88 57.01 24.88 57.01 26.07 55.37 26.07 55.37 27.77 53.22 27.77 53.22 29.55 51.65 29.55 51.65 31.26 50.44 31.26 50.44 33.18 49.01 33.18 49.01 34.74 47.37 34.74 47.37 36.52 46.15 36.52 46.15 37.85 44.94 37.85 44.94 40.57 42.66 40.57 42.66 42.82 41.58 42.82 41.58 46.23 40.3 46.23 40.3 45.19 39.23 45.19 37.8 45.19 37.8 46.9 35.23 46.9 35.23 47.86 33.94 47.86 33.94 48.67 32.44 48.67 32.44 49.71 31.23 49.71 31.23 50.23 31.23 50.9 32.12 50.9 32.12 51.39 33.08 51.39"/><polygon class="cls-21" points="53.94 45.56 53.94 42.63 52.58 42.63 52.58 40.74 53.26 40.74 53.26 36.41 54.29 36.41 54.29 33.55 56.15 33.55 56.15 31.63 57.94 31.63 57.94 33.33 59.58 33.33 59.58 35.78 61.65 35.78 61.65 37.85 64.51 37.85 64.51 41.04 66.29 41.04 66.29 44.08 64.29 44.08 64.29 45.56 53.94 45.56"/><polygon class="cls-22" points="51.22 55.64 51.22 52.68 54.15 52.68 54.15 51.39 58.01 51.39 58.01 50.01 63.08 50.01 63.08 48.45 67.51 48.45 67.51 47.12 73.29 47.12 73.29 48.6 83.15 48.6 83.15 51.08 91.37 51.08 91.37 55.64 103.43 55.64 103.43 57.94 86.64 57.94 86.64 59.35 81.5 59.35 81.5 57.64 77.65 57.64 77.65 59.35 70.58 59.35 70.58 57.12 67.22 57.12 67.22 58.31 61.94 58.31 58.65 58.31 58.65 56.75 56.65 56.75 54.01 56.75 54.01 55.49 51.22 55.64"/><polygon class="cls-23" points="65.43 53.23 65.43 50.82 69.15 50.82 69.15 48.9 73.63 48.9 73.63 51.39 77.72 51.39 77.72 53.23 82.08 53.23 82.08 54.97 76.58 54.97 76.58 56.34 73.75 56.34 73.75 54.83 69.86 54.83 69.86 55.79 62.65 55.79 62.65 53.94 65.51 53.94 65.43 53.23"/><polygon class="cls-24" points="83.57 51.08 83.57 47.93 80.15 47.93 80.15 43.72 85.09 43.72 85.09 40.59 88.85 40.59 88.85 43.72 92.64 43.72 92.64 51.39 98.22 51.39 98.22 55.64 91.37 55.64 91.37 53.23 89.5 53.23 89.5 52.03 86.43 52.03 86.43 51.19 83.57 51.08"/><polygon class="cls-25" points="45.11 32.42 45.11 31.92 44.55 31.92 44.55 31.56 44.25 31.56 44.25 31.03 43.96 31.03 43.96 30.56 43.63 30.56 43.63 29.97 43.13 29.97 43.13 29.39 43.39 29.39 43.39 28.86 43.74 28.86 43.74 28.11 43.51 28.11 43.51 27.78 43.13 27.78 43.13 27.52 42.77 27.52 42.77 26.86 43.16 26.86 43.16 26.42 44.25 26.42 44.25 26.77 44.72 26.77 44.72 27.12 45.05 27.12 45.05 27.57 45.43 27.57 45.43 28.14 45.79 28.14 45.79 24.88 47.08 24.88 47.08 28.11 47.48 28.11 47.48 27.53 47.79 27.53 47.79 27.01 48.15 27.01 48.15 26.62 48.53 26.62 48.53 26.24 48.93 26.24 48.93 26.81 49.07 26.81 49.07 28.36 48.61 28.36 48.61 29.41 48.36 29.41 48.36 30.34 47.97 30.34 47.97 31.23 47.97 32.42 45.11 32.42"/><polygon class="cls-26" points="43.33 26.85 43.9 26.85 43.9 27.27 44.28 27.27 44.28 28.29 44.8 28.29 44.8 28.92 45.22 28.92 45.22 29.57 45.92 29.57 45.92 30.48 46.47 30.48 46.47 29.48 47.1 29.48 47.1 31.28 45.58 31.28 45.58 30.7 44.99 30.7 44.99 30.37 44.74 30.37 44.74 29.92 44.47 29.92 44.47 29.2 44.12 29.2 44.12 28.65 43.88 28.65 43.88 27.72 43.65 27.72 43.65 27.37 43.33 27.37 43.33 26.85"/><polygon class="cls-27" points="46.24 25.36 46.6 25.36 46.6 26.03 46.42 26.03 46.42 26.48 46.63 26.48 46.63 27.14 46.53 27.14 46.53 27.66 46.8 27.66 46.8 28.46 46.24 28.46 46.24 27.72 46.03 27.72 46.03 26.57 46.19 26.57 46.19 26.16 46.03 26.16 46.03 25.77 46.26 25.77 46.24 25.36"/><polygon class="cls-28" points="47.8 28.29 47.8 28.02 47.95 28.02 47.95 27.55 48.24 27.55 48.24 27.16 48.54 27.16 48.54 27.73 48.31 27.73 48.31 28.03 48.17 28.03 48.17 28.37 48.17 28.65 47.99 28.65 47.99 28.85 47.8 28.85 47.8 28.29"/><polygon class="cls-29" points="39.23 14.03 39.78 14.03 39.78 14.64 40.33 14.64 40.33 16.29 41.33 16.29 41.33 21.4 41.94 21.4 41.94 23.09 41.94 24.16 42.51 24.16 42.51 25.11 42.51 26.59 42.51 30.13 43.01 30.13 43.01 31.28 43.47 31.28 43.47 37.85 44.21 37.85 44.21 40.57 42.66 40.57 42.66 42.82 41.58 42.82 41.58 46.23 40.87 46.23 40.87 43.69 40.44 43.69 40.44 40.41 39.81 40.41 39.81 38.11 40.67 38.11 40.67 36.46 39.63 36.46 39.63 32.85 40.33 32.85 40.33 30.83 38.88 30.83 38.88 22.72 39.31 22.72 39.23 14.03"/><polygon class="cls-30" points="62.3 9.73 62.3 11.2 63.8 11.2 63.8 12.51 65.78 12.51 65.78 14.59 67.31 14.59 67.31 19.87 70.28 19.87 70.28 22.01 70.28 25.54 72.29 25.54 72.29 28 73.9 28 73.9 24.51 77.54 24.51 77.54 21.01 79.55 21.01 79.55 14.31 81.5 14.31 81.5 9.51 81.18 9.51 81.18 5.67 62.84 6.59 62.3 9.73"/><polygon class="cls-31" points="80.65 6.17 80.65 7.78 78.88 7.78 78.88 8.73 73.09 8.73 73.09 10.01 67.52 10.01 67.52 8.5 63.99 8.5 63.99 9.73 60.99 9.73 60.99 7.73 57.94 7.73 57.94 5.78 58.85 5.78 58.85 4.67 60.83 4.67 60.83 2.95 62.92 2.95 62.92 1.28 64.06 1.28 80.81 1.5 80.65 6.17"/><polygon class="cls-32" points="94.14 26.85 94.14 24.51 96.86 24.51 96.86 21.03 100.46 21.03 100.46 17.69 103.43 17.69 103.43 19.62 106.78 19.62 106.78 14.88 110.86 14.88 110.86 12.36 113.5 12.36 113.5 16.29 117.35 16.29 117.35 18.51 120.57 18.51 120.57 19.92 122.5 19.92 122.5 23.11 120.21 23.11 120.21 25.54 121.64 25.54 121.64 28 118.78 28 118.78 30.44 110.07 30.44 110.07 32.42 107.36 32.42 107.36 30.96 103.43 30.96 103.43 32.42 100.73 32.42 100.73 31.28 97.22 31.28 97.22 29.4 94.14 29.4 94.14 26.85"/><polygon class="cls-14" points="106.5 35.19 106.5 36.08 105.66 36.08 105.66 36.75 104.59 36.75 104.59 38.09 103.8 38.09 103.8 39.23 102.68 39.23 102.68 53.69 100.73 53.69 100.73 37.27 102.08 37.27 102.08 35.68 103.32 35.68 103.32 33.75 106.5 33.75 106.5 35.19"/><rect class="cls-33" x="119.54" y="27.73" width="1.25" height="1.34"/><polygon class="cls-34" points="143.85 62.99 143.85 60.83 154.78 60.83 154.78 64.44 163.56 64.44 163.56 67.09 173.42 67.09 173.42 69.9 165.28 69.9 165.28 67.81 156.17 67.81 156.17 65.36 152.42 65.36 152.42 62.35 144.81 62.35 144.81 65.64 138.06 65.64 138.06 69.17 134.64 69.17 134.64 75.84 139.24 75.84 139.24 79.29 158.74 79.29 158.74 76.72 168.28 76.72 168.28 73.59 174.27 73.59 174.27 65.16 179.42 65.16 179.42 62.67 176.74 62.67 176.74 60.02 167.95 60.02 167.95 57.84 159.06 57.84 159.06 61.31 156.6 61.31 156.6 57.84 152.21 57.84 152.21 55.93 147.06 55.93 147.06 53.68 142.89 53.68 142.89 51.11 134.64 51.11 134.64 53.44 127.57 53.44 127.57 62.03 131.21 62.03 131.21 64.44 136.24 64.44 143.85 64.44 143.85 62.99"/><polygon class="cls-32" points="136.89 72.23 136.89 74.72 148.99 74.72 148.99 72.87 155.53 72.87 155.53 74.72 162.17 74.72 162.17 72.23 171.59 72.23 171.59 69.9 165.28 69.9 165.28 67.81 156.17 67.81 156.17 65.36 152.42 65.36 152.42 62.35 144.81 62.35 144.81 65.64 138.06 65.64 138.06 69.17 134.64 69.17 134.64 72.06 136.89 72.23"/><polygon class="cls-32" points="127.57 57.84 131.64 57.84 131.64 60.02 136.78 60.02 136.78 58.17 152.1 58.17 152.1 55.93 147.06 55.93 147.06 53.68 142.89 53.68 142.89 51.11 134.64 51.11 134.64 53.44 127.57 53.44 127.57 57.84"/><polygon class="cls-32" points="176.74 62.67 170.95 62.67 170.95 65.2 165.17 65.2 165.17 62.67 155.74 62.67 155.74 60.42 156.6 60.42 156.6 61.31 159.06 61.31 159.06 57.84 167.95 57.84 167.95 60.02 176.74 60.02 176.74 62.67"/><rect class="cls-35" x="93.45" y="25.72" width="1.23" height="1.32"/><rect class="cls-35" x="118.84" y="15.87" width="1.23" height="1.32"/><rect class="cls-35" x="103.65" y="14.1" width="1.23" height="1.32"/><rect class="cls-35" x="109.99" y="29.01" width="1.23" height="1.32"/><polygon class="cls-36" points="139.31 60.28 139.31 67.2 140.59 67.2 140.59 68.6 148.66 68.6 148.66 67.22 149.96 67.22 149.96 60.28 148.61 60.28 148.61 57.48 147.13 57.48 147.13 56.1 141.99 56.1 141.99 57.58 140.74 57.58 140.74 60.3 139.31 60.28"/><polygon class="cls-37" points="147.23 64.34 146.01 64.34 146.01 65.9 144.64 65.9 144.64 67.14 140.59 67.14 140.59 65.96 139.31 65.96 139.31 61.7 142.12 61.7 142.12 60.17 143.41 60.17 143.41 57.48 143.41 56.1 146.06 56.1 146.06 57.53 147.13 57.53 147.23 64.34"/><polygon class="cls-38" points="140.61 61.52 140.61 59.01 141.89 59.01 141.89 57.37 143.41 57.37 143.41 60.17 142.12 60.17 142.12 61.7 140.61 61.7 140.61 61.52"/><polygon class="cls-36" points="147.23 56.86 147.23 65.42 148.81 65.42 148.81 67.14 158.78 67.14 158.78 65.45 160.38 65.45 160.38 56.86 158.72 56.86 158.72 53.4 156.89 53.4 156.89 51.7 150.54 51.7 150.54 53.53 148.99 53.53 148.99 56.89 147.23 56.86"/><polygon class="cls-37" points="157.02 61.89 155.51 61.89 155.51 63.81 153.81 63.81 153.81 65.35 148.81 65.35 148.81 63.88 147.23 63.88 147.23 58.62 150.69 58.62 150.69 56.73 152.3 56.73 152.3 53.4 152.3 51.7 155.57 51.7 155.57 53.47 156.89 53.47 157.02 61.89"/><polygon class="cls-38" points="148.84 58.4 148.84 55.29 150.41 55.29 150.41 53.27 152.3 53.27 152.3 56.73 150.69 56.73 150.69 58.62 148.84 58.62 148.84 58.4"/><polygon class="cls-36" points="151.91 62.36 151.91 68.73 153.09 68.73 153.09 70.02 160.51 70.02 160.51 68.75 161.7 68.75 161.7 62.36 160.46 62.36 160.46 59.79 159.1 59.79 159.1 58.53 154.37 58.53 154.37 59.89 153.23 59.89 153.23 62.39 151.91 62.36"/><polygon class="cls-37" points="159.19 66.11 158.07 66.11 158.07 67.54 156.81 67.54 156.81 68.68 153.09 68.68 153.09 67.59 151.91 67.59 151.91 63.68 154.49 63.68 154.49 62.27 155.68 62.27 155.68 59.79 155.68 58.53 158.12 58.53 158.12 59.84 159.1 59.84 159.19 66.11"/><polygon class="cls-38" points="153.11 63.51 153.11 61.2 154.28 61.2 154.28 59.69 155.68 59.69 155.68 62.27 154.49 62.27 154.49 63.68 153.11 63.68 153.11 63.51"/><polygon class="cls-19" points="105.01 87.89 104.41 85.76 105.92 85.3 106.32 86.74 107.83 86.28 108.59 88.96 105.58 89.88 105.01 87.89"/><polygon class="cls-39" points="90.45 72.42 90.45 75.45 91.72 75.45 91.72 77.73 93.43 77.73 93.43 79.8 99.04 79.8 99.04 77.92 102.78 77.92 102.78 74.21 107.22 74.21 107.22 77.57 110.3 77.57 110.3 80.47 116.06 80.47 116.06 83.32 122.67 83.32 122.67 80.32 121.26 80.32 121.26 78.41 119.54 78.41 119.54 75.71 123.28 75.71 123.28 73.38 119.9 73.38 119.9 71.05 122.72 71.05 122.72 68.08 88.38 68.08 88.38 70.01 91.46 70.01 90.45 72.42"/><polygon class="cls-40" points="81.17 57.85 81.17 62.64 82.82 62.64 82.82 66.5 84.59 66.5 84.59 68.25 86.41 68.25 86.41 69.66 90.41 69.66 90.41 71.59 92.3 71.59 92.3 75.71 93.54 75.71 93.54 76.85 97.13 76.85 97.13 71.35 109.91 71.35 109.91 74.74 111.22 74.74 111.22 76.56 115.21 76.56 115.21 70.01 116.81 70.01 116.81 67.96 119.26 67.96 119.26 66.32 120.74 66.32 120.74 64.69 122.45 64.69 122.45 61.18 123.94 61.18 123.94 56.5 125.76 56.5 125.76 32.26 124.56 32.26 124.56 29.14 122.8 29.14 122.8 27.09 120.8 27.09 120.8 25.66 111.45 25.66 111.45 27.03 109.34 27.03 109.34 29.55 109.34 30.48 111.85 30.48 111.85 32.26 118.8 32.26 118.8 34.05 120.46 34.05 120.46 49.19 118.92 49.19 118.92 52.7 116.92 52.7 116.92 54.63 115.44 54.63 113.61 54.63 113.61 52.99 99.19 52.99 99.19 54.28 95.31 54.28 95.31 56.5 93.88 56.5 93.88 58.26 92 58.26 92 59.48 90.23 59.48 90.23 61.35 84.59 61.35 84.59 59.6 82.71 59.6 82.71 57.85 81.17 57.85"/><polygon class="cls-41" points="99.24 68.08 107.8 68.08 107.8 69.66 109.85 69.66 109.85 71.35 97.13 71.35 97.13 70.01 99.19 70.01 99.24 68.08"/><polygon class="cls-41" points="99.47 52.99 99.47 56.03 101.18 56.03 101.18 57.26 102.61 57.26 102.61 58.96 105 58.96 105 57.67 108.94 57.67 108.94 56.33 111.16 56.33 111.16 54.57 112.02 54.57 112.02 56.44 113.39 56.44 113.39 52.99 99.47 52.99"/><rect class="cls-33" x="118.03" y="28.03" width="1.77" height="1.87"/><polygon class="cls-18" points="50.77 84.96 50.98 83.06 53.3 83.33 53.45 81.99 52.29 81.85 52.63 78.76 54.87 79.02 55.16 76.37 53.46 76.17 53.79 73.08 55.5 73.28 55.74 71.07 52.33 70.67 52.52 68.96 50.25 68.69 50.46 66.72 46.77 66.29 47.01 64.08 40.52 63.32 40.3 65.38 38.27 65.14 38.04 67.24 33.79 66.74 33.55 68.91 30.66 68.57 30.32 71.67 28.24 71.42 27.91 74.51 29.98 74.76 29.66 77.7 32.55 78.04 32.25 80.85 32.66 80.9 36.5 81.35 36.36 82.66 41.33 83.24 41.02 86.05 44.71 86.48 44.91 84.72 46.89 84.95 46.7 86.72 50.53 87.17 50.77 84.96"/><polygon class="cls-7" points="21.38 63.13 24.04 63.13 24.04 64.25 25.38 64.25 25.38 67.63 22.52 67.63 22.52 65.38 20.1 65.38 20.1 61.89 21.45 61.89 21.38 63.13"/><polygon class="cls-7" points="46.2 73.85 48.17 75.7 47.44 76.53 48.43 77.47 46.24 79.97 44.13 77.98 45.58 76.31 43.79 74.62 46.05 72.03 47.06 72.98 46.2 73.85"/><polygon class="cls-4" points="18.02 66.97 22.35 67.26 22.27 67.67 17.93 67.38 18.02 66.97"/><polygon class="cls-6" points="19.55 65.61 21.41 65.74 21.93 65.77 22.03 66.1 18.85 65.89 18.91 65.6 19.55 65.61"/><path class="cls-5" d="M19,62.21l4.38.29-.09.43-4.25-.29Z"/><polygon class="cls-8" points="19.59 60.71 23.56 60.98 23.48 61.38 19.25 61.09 19.32 60.69 19.59 60.71"/><path class="cls-2" d="M24.69,56.29,20.07,56l-.08.39,4.67.31Z"/><polygon class="cls-1" points="20.39 57.54 23.86 57.78 23.79 58.13 20.31 57.9 20.39 57.54"/><polygon class="cls-7" points="17.92 67.4 17.88 67.61 17.69 67.59 17.66 67.73 17.14 67.7 17.17 67.53 16.82 67.5 16.88 67.19 16.76 67.18 16.82 66.88 16.94 66.89 17.03 66.48 17.17 66.49 17.23 66.2 17.38 66.21 17.44 65.94 17.61 65.95 17.66 65.7 17.91 65.72 17.95 65.53 18.17 65.54 18.22 65.3 18.34 65.31 18.38 65.15 18.59 65.16 18.61 65.04 18.86 65.05 18.89 64.91 19.09 64.92 19.11 64.8 19.3 64.81 19.32 64.72 19.47 64.73 19.48 64.64 19.62 64.65 19.64 64.57 19.82 64.58 19.84 64.48 20.02 64.5 20.04 64.41 20.25 64.42 20.27 64.31 20.43 64.33 20.44 64.24 20.63 64.26 20.65 64.15 20.83 64.16 20.84 64.1 20.96 64.11 20.98 64.03 21.17 64.04 21.19 63.94 21.38 63.96 21.4 63.83 21.53 63.84 21.54 63.76 21.71 63.77 21.73 63.69 21.88 63.7 21.9 63.59 22.07 63.6 22.1 63.48 22.21 63.49 22.22 63.41 22.34 63.41 22.36 63.32 22.47 63.33 22.49 63.23 22.59 63.23 22.61 63.13 22.71 63.13 22.74 63 22.85 63.01 22.88 62.87 22.96 62.87 23 62.71 23.06 62.71 23.09 62.54 23.17 62.55 23.2 62.38 23.24 62.21 23.36 61.58 23.38 61.48 23.32 61.47 23.35 61.32 23.3 61.31 23.32 61.19 23.26 61.19 23.29 61.07 23.21 61.06 23.24 60.93 23.16 60.92 23.19 60.8 23.06 60.79 23.08 60.7 23 60.69 23.02 60.6 22.9 60.59 22.92 60.51 22.82 60.5 22.84 60.4 22.74 60.4 22.76 60.3 22.62 60.29 22.64 60.21 22.49 60.2 22.51 60.12 22.36 60.1 22.39 59.97 22.23 59.96 22.25 59.87 22.09 59.86 22.11 59.75 21.89 59.74 21.91 59.66 21.78 59.65 21.8 59.58 21.6 59.56 21.62 59.44 21.39 59.42 21.42 59.31 21.2 59.3 21.22 59.2 21.04 59.19 21.06 59.09 20.88 59.08 20.9 58.96 20.7 58.94 20.72 58.83 20.53 58.82 20.55 58.73 20.43 58.73 20.45 58.62 20.27 58.6 20.3 58.49 20.07 58.47 20.09 58.34 19.91 58.33 19.94 58.21 19.75 58.19 19.78 58.05 19.6 58.04 19.63 57.88 19.49 57.87 19.51 57.76 19.37 57.75 19.4 57.63 19.29 57.62 19.33 57.44 19.2 57.43 19.24 57.25 19.11 57.24 19.16 57.03 19.04 57.02 19.08 56.85 19.01 56.84 19.04 56.66 18.99 56.65 19.03 56.44 18.96 56.44 19.02 56.17 19.06 55.93 19.13 55.94 19.16 55.79 19.28 55.8 19.29 55.72 19.5 55.73 19.52 55.64 19.95 55.67 19.93 55.78 20.08 55.79 20.06 55.88 20.18 55.89 20.14 56.08 20.21 56.08 20.15 56.37 20.14 56.44 20.09 56.66 20.19 56.66 20.12 57.03 20.29 57.04 20.25 57.24 20.4 57.26 20.36 57.45 20.52 57.46 20.5 57.58 20.68 57.6 20.66 57.69 20.77 57.69 20.74 57.82 20.91 57.83 20.88 57.96 21.06 57.97 21.04 58.05 21.18 58.06 21.16 58.18 21.36 58.2 21.34 58.31 21.53 58.32 21.51 58.41 21.66 58.42 21.65 58.5 21.79 58.51 21.77 58.59 21.95 58.6 21.93 58.68 22.09 58.69 22.07 58.78 22.24 58.8 22.22 58.9 22.4 58.91 22.38 59 22.57 59.01 22.55 59.12 22.74 59.13 22.73 59.2 22.85 59.2 22.83 59.29 22.95 59.3 22.93 59.39 23.12 59.41 23.1 59.51 23.29 59.52 23.27 59.63 23.43 59.64 23.4 59.77 23.57 59.78 23.55 59.88 23.7 59.89 23.67 60.04 23.86 60.06 23.84 60.16 23.98 60.17 23.95 60.31 24.12 60.32 24.09 60.49 24.21 60.49 24.16 60.71 24.3 60.72 24.27 60.88 24.38 60.89 24.35 61.01 24.45 61.02 24.42 61.15 24.49 61.16 24.47 61.26 24.41 61.54 24.54 61.55 24.49 61.79 24.54 61.79 24.35 62.72 24.23 62.71 24.2 62.84 24.1 62.83 24.08 62.95 24.05 63.07 23.93 63.06 23.88 63.29 23.75 63.28 23.71 63.48 23.52 63.47 23.47 63.7 23.31 63.69 23.28 63.83 23.09 63.82 23.06 63.99 22.93 63.98 22.9 64.11 22.64 64.09 22.61 64.24 22.42 64.22 22.39 64.36 22.18 64.34 22.15 64.48 22.04 64.47 22.02 64.57 21.74 64.55 21.71 64.69 21.49 64.67 21.47 64.79 21.2 64.77 21.18 64.92 20.97 64.9 20.95 65 20.8 64.99 20.78 65.07 20.65 65.06 20.63 65.13 20.4 65.12 20.38 65.23 20.21 65.22 20.19 65.33 20.01 65.32 19.99 65.41 19.75 65.39 19.72 65.53 19.57 65.53 19.54 65.63 19.35 65.62 19.33 65.73 19.13 65.71 19.1 65.84 18.92 65.83 18.88 66.01 18.77 66 18.75 66.1 18.58 66.08 18.54 66.28 18.4 66.27 18.36 66.48 18.21 66.47 18.18 66.66 18.17 66.7 18.09 66.7 17.92 67.4"/><polygon class="cls-7" points="22.28 67.69 22.24 67.9 22.43 67.91 22.4 68.05 22.92 68.09 22.96 67.92 23.31 67.94 23.37 67.63 23.49 67.64 23.55 67.33 23.43 67.32 23.51 66.92 23.37 66.91 23.43 66.62 23.28 66.61 23.33 66.34 23.15 66.33 23.21 66.08 22.96 66.06 23 65.87 22.77 65.85 22.82 65.61 22.7 65.6 22.73 65.44 22.52 65.42 22.54 65.3 22.29 65.28 22.32 65.14 22.13 65.13 22.15 65 21.97 64.99 21.99 64.9 21.84 64.89 21.85 64.8 21.72 64.79 21.73 64.71 21.56 64.69 21.57 64.6 21.39 64.59 21.41 64.5 21.2 64.49 21.22 64.38 21.06 64.37 21.08 64.29 20.9 64.27 20.92 64.17 20.73 64.16 20.75 64.09 20.63 64.09 20.65 64 20.45 63.99 20.47 63.89 20.29 63.88 20.31 63.75 20.19 63.74 20.2 63.67 20.03 63.66 20.05 63.57 19.9 63.56 19.92 63.46 19.75 63.45 19.77 63.32 19.66 63.31 19.68 63.23 19.57 63.23 19.59 63.13 19.48 63.12 19.5 63.02 19.39 63.02 19.41 62.91 19.31 62.91 19.34 62.77 19.23 62.76 19.26 62.62 19.17 62.62 19.21 62.45 19.14 62.45 19.17 62.28 19.1 62.27 19.14 62.1 19.17 61.94 19.3 61.31 19.32 61.2 19.39 61.2 19.41 61.05 19.47 61.05 19.49 60.93 19.55 60.94 19.57 60.82 19.65 60.82 19.67 60.69 19.75 60.69 19.78 60.57 19.9 60.58 19.92 60.48 20 60.49 20.02 60.4 20.14 60.41 20.15 60.32 20.26 60.33 20.28 60.23 20.38 60.23 20.4 60.14 20.53 60.15 20.55 60.07 20.69 60.08 20.71 59.99 20.86 60 20.88 59.87 21.04 59.88 21.06 59.79 21.22 59.8 21.24 59.69 21.47 59.71 21.48 59.63 21.61 59.63 21.62 59.56 21.82 59.58 21.84 59.45 22.07 59.47 22.09 59.36 22.31 59.37 22.33 59.28 22.51 59.29 22.53 59.19 22.71 59.2 22.73 59.08 22.94 59.09 22.96 58.98 23.15 59 23.17 58.91 23.29 58.92 23.31 58.81 23.49 58.82 23.52 58.7 23.74 58.72 23.77 58.59 23.95 58.6 23.97 58.48 24.16 58.49 24.19 58.35 24.37 58.36 24.4 58.2 24.54 58.21 24.57 58.1 24.7 58.11 24.73 57.98 24.83 57.99 24.87 57.81 25 57.82 25.04 57.64 25.16 57.65 25.2 57.43 25.32 57.44 25.35 57.27 25.42 57.27 25.46 57.09 25.51 57.09 25.56 56.88 25.63 56.88 25.68 56.62 25.73 56.38 25.66 56.38 25.69 56.23 25.58 56.22 25.59 56.14 25.38 56.13 25.4 56.03 24.97 56.01 24.95 56.12 24.8 56.11 24.78 56.2 24.66 56.19 24.62 56.38 24.56 56.37 24.5 56.66 24.48 56.73 24.44 56.95 24.34 56.94 24.27 57.31 24.1 57.3 24.06 57.5 23.91 57.49 23.87 57.69 23.7 57.67 23.68 57.8 23.49 57.79 23.48 57.88 23.37 57.87 23.35 57.99 23.18 57.98 23.16 58.11 22.98 58.1 22.96 58.18 22.82 58.17 22.79 58.29 22.59 58.28 22.57 58.39 22.38 58.38 22.36 58.47 22.21 58.46 22.19 58.54 22.05 58.53 22.03 58.61 21.86 58.6 21.84 58.68 21.68 58.67 21.66 58.76 21.49 58.74 21.47 58.84 21.3 58.83 21.28 58.92 21.09 58.91 21.07 59.02 20.88 59 20.86 59.07 20.75 59.06 20.73 59.15 20.6 59.14 20.59 59.23 20.4 59.22 20.38 59.32 20.19 59.31 20.16 59.42 20 59.41 19.98 59.53 19.81 59.52 19.79 59.62 19.64 59.61 19.61 59.77 19.42 59.76 19.4 59.86 19.26 59.85 19.23 59.99 19.06 59.98 19.03 60.14 18.91 60.14 18.87 60.35 18.73 60.34 18.7 60.51 18.58 60.5 18.56 60.62 18.47 60.61 18.44 60.75 18.37 60.74 18.35 60.85 18.29 61.13 18.17 61.12 18.12 61.35 18.07 61.35 17.89 62.28 18 62.29 17.98 62.42 18.08 62.43 18.06 62.54 18.04 62.66 18.16 62.67 18.11 62.9 18.25 62.91 18.2 63.11 18.39 63.12 18.35 63.35 18.51 63.36 18.48 63.51 18.67 63.52 18.64 63.69 18.77 63.7 18.74 63.83 19 63.85 18.98 63.99 19.16 64 19.14 64.14 19.36 64.15 19.33 64.29 19.44 64.3 19.42 64.4 19.69 64.42 19.67 64.55 19.89 64.56 19.86 64.68 20.13 64.7 20.1 64.84 20.31 64.86 20.29 64.95 20.44 64.96 20.42 65.04 20.55 65.05 20.54 65.13 20.77 65.14 20.75 65.25 20.92 65.26 20.89 65.38 21.08 65.39 21.06 65.48 21.3 65.5 21.27 65.64 21.42 65.65 21.4 65.76 21.59 65.77 21.57 65.88 21.77 65.89 21.75 66.02 21.93 66.03 21.89 66.21 22.01 66.22 21.99 66.31 22.16 66.33 22.12 66.52 22.26 66.53 22.22 66.74 22.36 66.75 22.33 66.93 22.32 66.98 22.39 66.99 22.28 67.69"/><polygon class="cls-3" points="20.74 55.2 24.82 56.19 24.61 56.58 20.52 55.59 20.74 55.2"/><polygon class="cls-4" points="22.63 54.11 24.38 54.53 24.87 54.65 24.86 54.99 21.87 54.27 22.01 53.99 22.63 54.11"/><path class="cls-6" d="M23.17,50.66l4.12,1-.21.41-4-1Z"/><polygon class="cls-5" points="24.18 49.28 27.93 50.18 27.73 50.56 23.73 49.6 23.93 49.22 24.18 49.28"/><path class="cls-1" d="M30.46,45.74l-4.35-1.05-.2.37,4.4,1.06Z"/><polygon class="cls-8" points="25.93 46.28 29.2 47.07 29.03 47.41 25.75 46.62 25.93 46.28"/><polygon class="cls-7" points="20.5 55.61 20.4 55.81 20.22 55.76 20.15 55.9 19.66 55.78 19.74 55.61 19.41 55.53 19.57 55.24 19.45 55.21 19.61 54.92 19.72 54.95 19.93 54.56 20.06 54.59 20.2 54.31 20.35 54.35 20.49 54.1 20.65 54.14 20.78 53.89 21.01 53.95 21.11 53.77 21.32 53.82 21.44 53.59 21.56 53.62 21.64 53.46 21.84 53.51 21.9 53.39 22.14 53.45 22.21 53.31 22.39 53.36 22.46 53.24 22.63 53.28 22.68 53.19 22.82 53.23 22.86 53.14 22.99 53.17 23.04 53.09 23.2 53.13 23.25 53.04 23.42 53.08 23.47 53 23.66 53.05 23.72 52.95 23.87 52.98 23.91 52.9 24.08 52.95 24.13 52.84 24.31 52.89 24.34 52.83 24.45 52.85 24.49 52.77 24.68 52.82 24.73 52.73 24.9 52.77 24.96 52.65 25.08 52.67 25.12 52.6 25.28 52.64 25.32 52.56 25.46 52.59 25.52 52.49 25.68 52.53 25.74 52.41 25.84 52.44 25.89 52.36 25.99 52.39 26.04 52.3 26.14 52.32 26.19 52.23 26.29 52.25 26.34 52.15 26.44 52.17 26.5 52.05 26.61 52.07 26.68 51.94 26.76 51.95 26.84 51.8 26.91 51.81 26.99 51.65 27.06 51.67 27.14 51.51 27.23 51.35 27.54 50.75 27.6 50.64 27.54 50.63 27.61 50.48 27.56 50.47 27.63 50.35 27.57 50.34 27.63 50.23 27.56 50.21 27.63 50.08 27.56 50.07 27.62 49.95 27.5 49.92 27.55 49.83 27.48 49.81 27.52 49.73 27.41 49.7 27.45 49.62 27.35 49.59 27.4 49.5 27.31 49.48 27.36 49.38 27.23 49.35 27.27 49.28 27.13 49.24 27.18 49.16 27.04 49.13 27.11 49 26.96 48.97 27.01 48.88 26.85 48.84 26.91 48.74 26.7 48.69 26.74 48.61 26.62 48.58 26.66 48.51 26.47 48.47 26.53 48.35 26.32 48.3 26.37 48.2 26.17 48.15 26.22 48.05 26.04 48.01 26.1 47.91 25.93 47.87 25.99 47.76 25.8 47.71 25.85 47.61 25.67 47.57 25.72 47.48 25.61 47.46 25.66 47.35 25.49 47.31 25.55 47.2 25.33 47.15 25.4 47.02 25.23 46.98 25.29 46.87 25.11 46.82 25.18 46.69 25.02 46.65 25.1 46.5 24.96 46.46 25.02 46.35 24.89 46.32 24.95 46.21 24.85 46.18 24.94 46.01 24.82 45.98 24.91 45.81 24.79 45.78 24.9 45.58 24.8 45.55 24.88 45.39 24.81 45.37 24.91 45.19 24.86 45.18 24.97 44.98 24.9 44.96 25.03 44.71 25.15 44.48 25.21 44.49 25.29 44.35 25.4 44.38 25.44 44.3 25.64 44.35 25.68 44.27 26.09 44.36 26.03 44.47 26.17 44.51 26.13 44.59 26.24 44.62 26.15 44.8 26.21 44.81 26.07 45.08 26.03 45.15 25.92 45.36 26.01 45.38 25.83 45.73 25.99 45.77 25.89 45.97 26.03 46 25.93 46.19 26.08 46.22 26.02 46.34 26.19 46.38 26.15 46.47 26.25 46.49 26.18 46.61 26.34 46.65 26.27 46.77 26.44 46.81 26.4 46.89 26.53 46.92 26.47 47.04 26.66 47.09 26.61 47.19 26.79 47.23 26.74 47.32 26.89 47.35 26.84 47.43 26.98 47.46 26.94 47.54 27.11 47.58 27.07 47.66 27.21 47.69 27.17 47.78 27.33 47.82 27.28 47.91 27.45 47.95 27.4 48.04 27.58 48.08 27.53 48.18 27.71 48.23 27.67 48.29 27.78 48.32 27.74 48.4 27.86 48.43 27.81 48.52 27.99 48.56 27.94 48.66 28.12 48.7 28.06 48.81 28.21 48.84 28.15 48.96 28.31 49 28.26 49.09 28.4 49.13 28.32 49.28 28.49 49.32 28.44 49.42 28.58 49.45 28.51 49.59 28.67 49.62 28.58 49.78 28.69 49.81 28.59 50.01 28.72 50.04 28.63 50.2 28.74 50.23 28.68 50.34 28.76 50.36 28.69 50.49 28.76 50.51 28.71 50.61 28.57 50.88 28.68 50.91 28.57 51.13 28.61 51.14 28.14 52.02 28.03 52 27.97 52.12 27.87 52.1 27.81 52.21 27.75 52.32 27.63 52.29 27.52 52.51 27.39 52.48 27.29 52.68 27.11 52.63 27 52.85 26.84 52.81 26.77 52.95 26.59 52.91 26.51 53.07 26.38 53.04 26.32 53.17 26.07 53.11 26 53.24 25.82 53.2 25.75 53.33 25.55 53.28 25.48 53.41 25.37 53.38 25.32 53.48 25.06 53.42 25 53.54 24.79 53.49 24.73 53.61 24.48 53.55 24.41 53.68 24.21 53.64 24.16 53.73 24.02 53.69 23.98 53.77 23.86 53.74 23.82 53.81 23.6 53.76 23.54 53.86 23.39 53.83 23.33 53.94 23.16 53.89 23.11 53.98 22.88 53.92 22.81 54.06 22.67 54.03 22.61 54.13 22.43 54.09 22.38 54.19 22.19 54.14 22.12 54.27 21.95 54.23 21.86 54.39 21.75 54.37 21.7 54.46 21.54 54.42 21.44 54.6 21.32 54.57 21.21 54.77 21.07 54.74 20.98 54.92 20.96 54.96 20.88 54.95 20.5 55.61"/><polygon class="cls-7" points="24.61 56.6 24.51 56.8 24.69 56.84 24.62 56.97 25.11 57.09 25.2 56.93 25.53 57.01 25.68 56.71 25.8 56.74 25.95 56.45 25.84 56.42 26.04 56.03 25.91 56 26.05 55.73 25.91 55.69 26.04 55.44 25.88 55.4 26 55.15 25.77 55.1 25.87 54.92 25.66 54.87 25.78 54.63 25.66 54.61 25.75 54.45 25.54 54.4 25.61 54.28 25.37 54.23 25.44 54.09 25.26 54.05 25.32 53.93 25.15 53.89 25.19 53.8 25.05 53.77 25.09 53.68 24.97 53.65 25.01 53.57 24.84 53.53 24.89 53.44 24.72 53.39 24.76 53.31 24.56 53.27 24.62 53.16 24.47 53.13 24.51 53.05 24.34 53.01 24.39 52.91 24.22 52.87 24.25 52.81 24.14 52.78 24.18 52.7 24 52.65 24.04 52.56 23.87 52.52 23.93 52.4 23.82 52.37 23.86 52.3 23.7 52.26 23.74 52.18 23.6 52.14 23.65 52.04 23.49 52 23.55 51.89 23.45 51.86 23.49 51.78 23.38 51.76 23.43 51.67 23.32 51.64 23.38 51.55 23.28 51.52 23.33 51.42 23.24 51.4 23.3 51.27 23.2 51.25 23.27 51.11 23.19 51.09 23.27 50.93 23.21 50.92 23.3 50.76 23.23 50.74 23.31 50.58 23.4 50.42 23.71 49.82 23.77 49.72 23.83 49.73 23.91 49.59 23.96 49.6 24.02 49.48 24.07 49.5 24.13 49.38 24.2 49.4 24.27 49.27 24.34 49.29 24.41 49.17 24.52 49.2 24.57 49.11 24.64 49.13 24.69 49.04 24.8 49.07 24.84 48.99 24.94 49.01 24.99 48.91 25.09 48.94 25.13 48.85 25.26 48.88 25.3 48.8 25.44 48.83 25.48 48.75 25.62 48.78 25.69 48.66 25.83 48.69 25.88 48.61 26.03 48.65 26.09 48.54 26.3 48.59 26.34 48.51 26.46 48.54 26.49 48.47 26.68 48.52 26.74 48.4 26.96 48.45 27.01 48.35 27.21 48.4 27.26 48.31 27.43 48.35 27.49 48.25 27.66 48.29 27.71 48.18 27.91 48.22 27.96 48.12 28.14 48.16 28.18 48.08 28.29 48.11 28.35 48 28.52 48.04 28.58 47.93 28.8 47.98 28.86 47.85 29.03 47.9 29.09 47.78 29.27 47.83 29.34 47.69 29.51 47.73 29.59 47.58 29.72 47.61 29.78 47.5 29.91 47.53 29.97 47.42 30.07 47.44 30.16 47.27 30.29 47.3 30.38 47.13 30.5 47.15 30.6 46.95 30.71 46.98 30.79 46.81 30.86 46.83 30.95 46.65 31 46.66 31.11 46.46 31.18 46.48 31.31 46.22 31.43 45.99 31.37 45.98 31.45 45.84 31.34 45.81 31.38 45.73 31.18 45.69 31.22 45.6 30.82 45.5 30.76 45.61 30.62 45.58 30.57 45.66 30.46 45.64 30.37 45.81 30.3 45.8 30.16 46.07 30.13 46.14 30.02 46.35 29.92 46.33 29.74 46.67 29.58 46.64 29.48 46.83 29.33 46.8 29.23 46.98 29.08 46.95 29.02 47.06 28.84 47.02 28.8 47.11 28.7 47.08 28.64 47.2 28.48 47.16 28.42 47.29 28.25 47.25 28.21 47.33 28.07 47.3 28.02 47.41 27.82 47.36 27.77 47.47 27.59 47.42 27.54 47.51 27.4 47.48 27.36 47.55 27.23 47.52 27.18 47.6 27.02 47.56 26.98 47.63 26.83 47.6 26.78 47.69 26.62 47.65 26.57 47.74 26.41 47.7 26.36 47.79 26.18 47.74 26.13 47.84 25.95 47.8 25.92 47.87 25.8 47.84 25.76 47.92 25.64 47.9 25.6 47.98 25.42 47.94 25.37 48.03 25.19 47.99 25.13 48.1 24.98 48.06 24.92 48.18 24.76 48.14 24.71 48.24 24.57 48.2 24.49 48.35 24.32 48.31 24.27 48.41 24.13 48.38 24.06 48.51 23.9 48.47 23.81 48.63 23.7 48.6 23.59 48.81 23.46 48.78 23.38 48.94 23.28 48.91 23.22 49.02 23.13 49 23.06 49.13 22.99 49.12 22.94 49.22 22.8 49.48 22.68 49.46 22.57 49.68 22.52 49.67 22.05 50.55 22.17 50.58 22.1 50.71 22.2 50.73 22.14 50.84 22.08 50.95 22.2 50.98 22.08 51.2 22.21 51.23 22.1 51.42 22.28 51.47 22.17 51.69 22.32 51.72 22.25 51.86 22.43 51.91 22.34 52.06 22.47 52.09 22.4 52.22 22.65 52.28 22.57 52.42 22.75 52.46 22.69 52.59 22.89 52.64 22.82 52.77 22.93 52.79 22.88 52.89 23.14 52.95 23.07 53.08 23.28 53.13 23.22 53.24 23.46 53.3 23.39 53.44 23.59 53.49 23.54 53.58 23.68 53.61 23.64 53.69 23.77 53.72 23.73 53.79 23.95 53.84 23.9 53.95 24.05 53.98 23.99 54.09 24.17 54.14 24.12 54.22 24.35 54.28 24.28 54.41 24.42 54.45 24.36 54.55 24.54 54.59 24.49 54.7 24.68 54.74 24.61 54.87 24.79 54.91 24.7 55.08 24.81 55.1 24.76 55.2 24.92 55.23 24.82 55.42 24.95 55.45 24.85 55.65 24.98 55.68 24.89 55.86 24.87 55.91 24.94 55.92 24.61 56.6"/><polygon class="cls-2" points="26.95 43.98 30.88 45.21 30.64 45.58 26.69 44.35 26.95 43.98"/><polygon class="cls-3" points="28.95 43 30.64 43.52 31.11 43.67 31.06 44.01 28.18 43.11 28.35 42.84 28.95 43"/><path class="cls-4" d="M29.88,39.58l4,1.24-.26.4L29.73,40Z"/><polygon class="cls-6" points="31.04 38.25 34.65 39.38 34.41 39.75 30.56 38.55 30.8 38.18 31.04 38.25"/><path class="cls-8" d="M37.67,35.08l-4.2-1.31-.24.37,4.25,1.32Z"/><polygon class="cls-5" points="33.11 35.36 36.27 36.34 36.06 36.67 32.9 35.69 33.11 35.36"/><polygon class="cls-7" points="26.67 44.38 26.55 44.57 26.37 44.51 26.29 44.64 25.81 44.49 25.91 44.33 25.6 44.23 25.79 43.95 25.67 43.91 25.86 43.63 25.97 43.67 26.22 43.29 26.34 43.33 26.52 43.06 26.66 43.1 26.83 42.86 26.98 42.91 27.14 42.67 27.36 42.74 27.48 42.57 27.68 42.63 27.83 42.41 27.94 42.44 28.04 42.29 28.24 42.35 28.31 42.24 28.54 42.31 28.63 42.18 28.8 42.23 28.88 42.12 29.05 42.17 29.1 42.09 29.24 42.13 29.29 42.04 29.42 42.08 29.47 42 29.63 42.05 29.69 41.97 29.86 42.02 29.91 41.94 30.1 42 30.16 41.9 30.31 41.94 30.36 41.87 30.52 41.92 30.59 41.82 30.75 41.87 30.79 41.82 30.9 41.85 30.95 41.77 31.13 41.83 31.19 41.74 31.35 41.79 31.43 41.67 31.54 41.71 31.59 41.64 31.75 41.69 31.8 41.61 31.93 41.65 32 41.55 32.15 41.6 32.23 41.49 32.33 41.52 32.38 41.44 32.48 41.47 32.54 41.39 32.64 41.42 32.7 41.33 32.8 41.35 32.86 41.26 32.95 41.29 33.03 41.16 33.13 41.19 33.22 41.06 33.29 41.09 33.4 40.93 33.45 40.95 33.56 40.8 33.62 40.82 33.73 40.66 33.83 40.51 34.21 39.92 34.27 39.82 34.22 39.8 34.31 39.66 34.26 39.65 34.34 39.53 34.28 39.52 34.35 39.41 34.29 39.39 34.37 39.27 34.3 39.24 34.37 39.13 34.26 39.09 34.32 39.01 34.25 38.98 34.3 38.9 34.19 38.87 34.25 38.79 34.15 38.76 34.21 38.66 34.12 38.64 34.18 38.55 34.05 38.51 34.1 38.44 33.97 38.39 34.02 38.31 33.89 38.27 33.98 38.15 33.83 38.11 33.89 38.02 33.74 37.98 33.8 37.88 33.6 37.81 33.65 37.74 33.54 37.7 33.58 37.64 33.4 37.58 33.48 37.47 33.27 37.4 33.34 37.3 33.14 37.24 33.2 37.15 33.03 37.1 33.09 37 32.93 36.95 33.01 36.84 32.82 36.78 32.89 36.68 32.71 36.63 32.77 36.55 32.66 36.52 32.73 36.42 32.56 36.36 32.63 36.25 32.42 36.19 32.5 36.07 32.34 36.02 32.41 35.91 32.24 35.85 32.33 35.72 32.17 35.67 32.26 35.52 32.13 35.48 32.2 35.38 32.08 35.34 32.15 35.23 32.06 35.2 32.17 35.03 32.05 34.99 32.16 34.82 32.04 34.79 32.17 34.59 32.07 34.56 32.18 34.4 32.11 34.38 32.22 34.21 32.18 34.19 32.31 34 32.24 33.98 32.4 33.73 32.55 33.51 32.61 33.53 32.7 33.39 32.8 33.42 32.85 33.35 33.04 33.41 33.1 33.33 33.49 33.45 33.42 33.55 33.56 33.6 33.5 33.68 33.61 33.71 33.5 33.88 33.56 33.9 33.38 34.17 33.34 34.23 33.21 34.44 33.3 34.46 33.08 34.8 33.23 34.85 33.1 35.04 33.24 35.08 33.12 35.26 33.27 35.31 33.2 35.42 33.37 35.48 33.31 35.56 33.41 35.59 33.33 35.7 33.48 35.75 33.4 35.87 33.56 35.92 33.51 36 33.64 36.04 33.57 36.15 33.75 36.21 33.69 36.31 33.86 36.36 33.8 36.44 33.94 36.49 33.89 36.56 34.02 36.6 33.97 36.68 34.13 36.73 34.09 36.8 34.23 36.85 34.17 36.93 34.33 36.98 34.27 37.07 34.43 37.12 34.37 37.2 34.55 37.26 34.48 37.35 34.66 37.41 34.62 37.47 34.72 37.5 34.67 37.59 34.78 37.62 34.73 37.71 34.9 37.76 34.84 37.85 35.01 37.91 34.94 38.01 35.08 38.06 35.01 38.17 35.16 38.22 35.1 38.31 35.24 38.35 35.15 38.5 35.31 38.55 35.25 38.64 35.38 38.68 35.3 38.82 35.45 38.87 35.35 39.02 35.46 39.05 35.33 39.25 35.45 39.29 35.35 39.44 35.45 39.47 35.38 39.58 35.46 39.61 35.38 39.74 35.45 39.76 35.38 39.85 35.21 40.12 35.32 40.15 35.18 40.37 35.22 40.38 34.66 41.24 34.55 41.2 34.47 41.33 34.38 41.3 34.31 41.4 34.23 41.51 34.12 41.48 33.98 41.69 33.86 41.65 33.74 41.84 33.57 41.79 33.43 42 33.28 41.95 33.19 42.09 33.02 42.03 32.92 42.19 32.8 42.15 32.72 42.27 32.48 42.2 32.39 42.33 32.22 42.28 32.14 42.4 31.94 42.34 31.86 42.47 31.75 42.44 31.69 42.53 31.44 42.45 31.36 42.57 31.16 42.51 31.09 42.62 30.85 42.55 30.76 42.68 30.57 42.62 30.52 42.71 30.38 42.66 30.33 42.74 30.21 42.7 30.16 42.77 29.95 42.7 29.88 42.81 29.73 42.76 29.66 42.87 29.5 42.81 29.44 42.9 29.22 42.83 29.14 42.96 29 42.92 28.93 43.02 28.76 42.97 28.7 43.06 28.51 43 28.43 43.13 28.26 43.08 28.16 43.24 28.05 43.2 27.99 43.29 27.84 43.24 27.72 43.42 27.59 43.39 27.46 43.58 27.33 43.54 27.22 43.71 27.19 43.75 27.12 43.73 26.67 44.38"/><polygon class="cls-7" points="30.63 45.61 30.51 45.8 30.68 45.85 30.6 45.98 31.07 46.13 31.18 45.97 31.5 46.07 31.68 45.78 31.8 45.82 31.98 45.54 31.87 45.5 32.12 45.13 31.99 45.09 32.17 44.82 32.02 44.77 32.19 44.53 32.03 44.48 32.18 44.24 31.96 44.17 32.07 44 31.87 43.93 32.01 43.71 31.9 43.68 32 43.52 31.81 43.46 31.88 43.35 31.66 43.28 31.74 43.15 31.57 43.09 31.64 42.98 31.47 42.92 31.53 42.84 31.39 42.8 31.45 42.71 31.32 42.67 31.37 42.6 31.21 42.55 31.27 42.46 31.1 42.41 31.16 42.33 30.96 42.27 31.03 42.17 30.89 42.12 30.94 42.05 30.77 41.99 30.83 41.9 30.67 41.85 30.7 41.79 30.6 41.76 30.65 41.68 30.47 41.62 30.53 41.53 30.36 41.48 30.44 41.36 30.33 41.33 30.37 41.26 30.22 41.21 30.27 41.13 30.13 41.09 30.2 40.99 30.04 40.94 30.12 40.83 30.02 40.8 30.07 40.72 29.96 40.69 30.02 40.6 29.92 40.57 29.98 40.48 29.89 40.45 29.95 40.35 29.86 40.32 29.94 40.2 29.84 40.17 29.93 40.04 29.85 40.01 29.95 39.86 29.89 39.84 29.99 39.69 29.93 39.66 30.03 39.51 30.13 39.35 30.51 38.77 30.58 38.67 30.64 38.69 30.73 38.55 30.78 38.56 30.85 38.45 30.91 38.47 30.98 38.36 31.05 38.38 31.13 38.25 31.2 38.28 31.27 38.16 31.39 38.2 31.44 38.11 31.52 38.13 31.57 38.05 31.68 38.08 31.73 38 31.82 38.03 31.89 37.94 31.98 37.97 32.03 37.88 32.16 37.92 32.21 37.84 32.34 37.88 32.39 37.8 32.52 37.84 32.6 37.72 32.74 37.77 32.8 37.68 32.95 37.73 33.02 37.63 33.22 37.69 33.27 37.62 33.38 37.65 33.42 37.59 33.6 37.64 33.68 37.53 33.89 37.59 33.95 37.49 34.15 37.55 34.21 37.46 34.37 37.52 34.44 37.42 34.6 37.47 34.67 37.36 34.85 37.42 34.92 37.32 35.09 37.37 35.15 37.29 35.25 37.32 35.32 37.22 35.49 37.27 35.56 37.16 35.77 37.23 35.85 37.11 36.01 37.16 36.08 37.05 36.25 37.1 36.34 36.97 36.5 37.02 36.6 36.87 36.73 36.91 36.8 36.81 36.92 36.85 37 36.73 37.09 36.76 37.2 36.6 37.32 36.63 37.43 36.47 37.55 36.5 37.67 36.3 37.78 36.34 37.88 36.18 37.95 36.2 38.06 36.02 38.11 36.04 38.24 35.84 38.3 35.86 38.46 35.62 38.61 35.4 38.55 35.38 38.64 35.24 38.53 35.21 38.58 35.13 38.39 35.07 38.45 34.99 38.05 34.87 37.98 34.97 37.84 34.93 37.79 35.01 37.68 34.98 37.57 35.15 37.51 35.13 37.34 35.4 37.29 35.46 37.16 35.67 37.07 35.64 36.85 35.98 36.69 35.93 36.57 36.12 36.43 36.08 36.31 36.26 36.17 36.21 36.09 36.32 35.92 36.27 35.87 36.35 35.77 36.33 35.7 36.44 35.55 36.39 35.47 36.51 35.31 36.46 35.26 36.54 35.13 36.5 35.05 36.61 34.87 36.55 34.8 36.65 34.63 36.6 34.58 36.68 34.44 36.64 34.39 36.72 34.26 36.67 34.21 36.75 34.05 36.7 34 36.77 33.86 36.73 33.8 36.81 33.65 36.77 33.59 36.86 33.43 36.81 33.37 36.89 33.2 36.84 33.13 36.93 32.96 36.88 32.92 36.94 32.81 36.91 32.76 36.99 32.65 36.96 32.59 37.04 32.42 36.99 32.36 37.08 32.19 37.02 32.12 37.13 31.97 37.09 31.9 37.2 31.74 37.15 31.68 37.24 31.55 37.2 31.45 37.35 31.28 37.3 31.22 37.39 31.09 37.35 31 37.48 30.85 37.43 30.75 37.59 30.64 37.55 30.51 37.75 30.39 37.71 30.28 37.86 30.18 37.83 30.11 37.94 30.03 37.92 29.94 38.04 29.88 38.02 29.81 38.12 29.64 38.38 29.53 38.34 29.39 38.56 29.35 38.55 28.78 39.41 28.89 39.44 28.81 39.56 28.91 39.59 28.84 39.7 28.76 39.81 28.88 39.84 28.74 40.05 28.86 40.09 28.73 40.28 28.91 40.33 28.77 40.54 28.92 40.59 28.83 40.73 29 40.78 28.9 40.94 29.02 40.97 28.94 41.09 29.17 41.17 29.09 41.3 29.26 41.35 29.18 41.48 29.38 41.54 29.29 41.67 29.39 41.7 29.33 41.79 29.58 41.87 29.5 41.99 29.7 42.05 29.63 42.16 29.87 42.24 29.78 42.37 29.98 42.43 29.92 42.52 30.05 42.56 30 42.64 30.12 42.67 30.08 42.74 30.29 42.81 30.23 42.91 30.37 42.96 30.3 43.06 30.47 43.12 30.42 43.2 30.64 43.27 30.55 43.4 30.69 43.44 30.62 43.54 30.79 43.6 30.73 43.69 30.91 43.75 30.83 43.88 31 43.93 30.89 44.09 31 44.12 30.94 44.21 31.1 44.26 30.98 44.44 31.11 44.48 30.98 44.67 31.11 44.71 31 44.88 30.97 44.93 31.04 44.95 30.63 45.61"/></g></g></svg>